<svg xmlns="http://www.w3.org/2000/svg" xmlns:xlink="http://www.w3.org/1999/xlink"  width="22" height="22" version="1.1">
 <defs>
  <linearGradient id="linearGradient832">
   <stop style="stop-color:#4381c1;stop-opacity:1"  offset="0"/>
   <stop style="stop-color:#5fa0e4;stop-opacity:1"  offset="1"/>
  </linearGradient>
  <linearGradient id="linearGradient975" x1="56" x2="56" y1="15" y2="7" gradientUnits="userSpaceOnUse" xlink:href="#linearGradient832"/>
 </defs>
 <g id="hover-center">
  <path style="opacity:0.37"  d="M 25.300781,0 C 23.491611,0 22,1.4916113 22,3.3007812 V 18.699219 C 22,20.508389 23.491611,22 25.300781,22 H 40.699219 C 42.508389,22 44,20.508389 44,18.699219 V 3.3007812 C 44,1.4916113 42.508389,0 40.699219,0 Z m -0.07813,1 H 40.777344 C 42.008455,1 43,1.9915451 43,3.2226562 V 18.777344 C 43,20.008455 42.008455,21 40.777344,21 H 25.222656 C 23.991545,21 23,20.008455 23,18.777344 V 3.2226562 C 23,1.9915451 23.991545,1 25.222656,1 Z"/>
  <path style="opacity:0.6;fill:#ffffff"  d="M 25.222656,1 C 23.991545,1 23,1.9915451 23,3.2226562 v 1 C 23,2.9915451 23.991545,2 25.222656,2 H 40.777344 C 42.008455,2 43,2.9915451 43,4.2226562 v -1 C 43,1.9915451 42.008455,1 40.777344,1 Z"/>
  <path  style="opacity:0.5;fill:#ffffff" d="M 32.939453,8 A 4,4 0 0 0 29,12 a 4,4 0 0 0 4,4 4,4 0 0 0 4,-4 4,4 0 0 0 -4,-4 4,4 0 0 0 -0.06055,0 z m 0.01172,2 a 2,2 0 0 1 0.04883,0 2,2 0 0 1 2,2 2,2 0 0 1 -2,2 2,2 0 0 1 -2,-2 2,2 0 0 1 1.95117,-2 z"/>
  <path  style="fill:#595959" d="M 32.939453,7 A 4,4 0 0 0 29,11 a 4,4 0 0 0 4,4 4,4 0 0 0 4,-4 4,4 0 0 0 -4,-4 4,4 0 0 0 -0.06055,0 z m 0.01172,2 a 2,2 0 0 1 0.04883,0 2,2 0 0 1 2,2 2,2 0 0 1 -2,2 2,2 0 0 1 -2,-2 2,2 0 0 1 1.95117,-2 z"/>
  <path  style="opacity:0.25" d="M 32.939453,7 A 4,4 0 0 0 29,11 4,4 0 0 0 29.03125,11.496094 4,4 0 0 1 32.939453,8 a 4,4 0 0 1 0.06055,0 4,4 0 0 1 3.96875,3.496094 A 4,4 0 0 0 37,11 4,4 0 0 0 33,7 4,4 0 0 0 32.93945,7 Z m 1.996094,4.498047 A 2,2 0 0 1 33,13 2,2 0 0 1 31.064453,11.501953 2,2 0 0 0 31,12 a 2,2 0 0 0 2,2 2,2 0 0 0 2,-2 2,2 0 0 0 -0.06445,-0.501953 z"/>
 </g>
 <g id="active-center">
  <rect  width="22" height="22" x="0" y="0" style="opacity:0.001"/>
  <path  style="opacity:0.5;fill:#ffffff" d="M 10.939453,8 A 4,4 0 0 0 7,12 a 4,4 0 0 0 4,4 4,4 0 0 0 4,-4 4,4 0 0 0 -4,-4 4,4 0 0 0 -0.06055,0 z m 0.01172,2 A 2,2 0 0 1 11,10 a 2,2 0 0 1 2,2 2,2 0 0 1 -2,2 2,2 0 0 1 -2,-2 2,2 0 0 1 1.951172,-2 z"/>
  <path  style="fill:#878787" d="M 10.939453 7 A 4 4 0 0 0 7 11 A 4 4 0 0 0 11 15 A 4 4 0 0 0 15 11 A 4 4 0 0 0 11 7 A 4 4 0 0 0 10.939453 7 z M 10.951172 9 A 2 2 0 0 1 11 9 A 2 2 0 0 1 13 11 A 2 2 0 0 1 11 13 A 2 2 0 0 1 9 11 A 2 2 0 0 1 10.951172 9 z"/>
  <path  style="opacity:0.21" d="M 10.939453 7 A 4 4 0 0 0 7 11 A 4 4 0 0 0 7.03125 11.496094 A 4 4 0 0 1 10.939453 8 A 4 4 0 0 1 11 8 A 4 4 0 0 1 14.96875 11.496094 A 4 4 0 0 0 15 11 A 4 4 0 0 0 11 7 A 4 4 0 0 0 10.939453 7 z M 12.935547 11.498047 A 2 2 0 0 1 11 13 A 2 2 0 0 1 9.0644531 11.501953 A 2 2 0 0 0 9 12 A 2 2 0 0 0 11 14 A 2 2 0 0 0 13 12 A 2 2 0 0 0 12.935547 11.498047 z"/>
 </g>
 <g id="pressed-center">
  <path style="opacity:0.37"  d="M 47.300781,0 C 45.491611,0 44,1.4916113 44,3.3007812 V 18.699219 C 44,20.508389 45.491611,22 47.300781,22 H 62.699219 C 64.508389,22 66,20.508389 66,18.699219 V 3.3007812 C 66,1.4916113 64.508389,0 62.699219,0 Z m -0.07813,1 H 62.777344 C 64.008455,1 65,1.9915451 65,3.2226562 V 18.777344 C 65,20.008455 64.008455,21 62.777344,21 H 47.222656 C 45.991545,21 45,20.008455 45,18.777344 V 3.2226562 C 45,1.9915451 45.991545,1 47.222656,1 Z"/>
  <path  style="opacity:0.5;fill:#ffffff" d="M 54.939453,8 A 4,4 0 0 0 51,12 a 4,4 0 0 0 4,4 4,4 0 0 0 4,-4 4,4 0 0 0 -4,-4 4,4 0 0 0 -0.06055,0 z m 0.01172,2 a 2,2 0 0 1 0.04883,0 2,2 0 0 1 2,2 2,2 0 0 1 -2,2 2,2 0 0 1 -2,-2 2,2 0 0 1 1.95117,-2 z"/>
  <path  style="fill:url(#linearGradient975)" d="M 54.939453,7 A 4,4 0 0 0 51,11 a 4,4 0 0 0 4,4 4,4 0 0 0 4,-4 4,4 0 0 0 -4,-4 4,4 0 0 0 -0.06055,0 z m 0.01172,2 a 2,2 0 0 1 0.04883,0 2,2 0 0 1 2,2 2,2 0 0 1 -2,2 2,2 0 0 1 -2,-2 2,2 0 0 1 1.95117,-2 z"/>
  <path  style="fill:#1f61a9" d="M 54.939453,7 A 4,4 0 0 0 51,11 4,4 0 0 0 51.03125,11.496094 4,4 0 0 1 54.939453,8 a 4,4 0 0 1 0.06055,0 4,4 0 0 1 3.96875,3.496094 A 4,4 0 0 0 59,11 4,4 0 0 0 55,7 4,4 0 0 0 54.93945,7 Z m 1.996094,4.498047 A 2,2 0 0 1 55,13 2,2 0 0 1 53.064453,11.501953 2,2 0 0 0 53,12 a 2,2 0 0 0 2,2 2,2 0 0 0 2,-2 2,2 0 0 0 -0.06445,-0.501953 z"/>
 </g>
 <g id="inactive-center">
  <rect style="opacity:0.001"  width="22" height="22" x="66" y="0"/>
  <path  style="opacity:0.2;fill:#ffffff" d="M 76.939453,8 A 4,4 0 0 0 73,12 a 4,4 0 0 0 4,4 4,4 0 0 0 4,-4 4,4 0 0 0 -4,-4 4,4 0 0 0 -0.06055,0 z m 0.01172,2 a 2,2 0 0 1 0.04883,0 2,2 0 0 1 2,2 2,2 0 0 1 -2,2 2,2 0 0 1 -2,-2 2,2 0 0 1 1.95117,-2 z"/>
  <path  style="fill:#aaaaaa" d="M 76.939453,7 A 4,4 0 0 0 73,11 a 4,4 0 0 0 4,4 4,4 0 0 0 4,-4 4,4 0 0 0 -4,-4 4,4 0 0 0 -0.06055,0 z m 0.01172,2 a 2,2 0 0 1 0.04883,0 2,2 0 0 1 2,2 2,2 0 0 1 -2,2 2,2 0 0 1 -2,-2 2,2 0 0 1 1.95117,-2 z"/>
  <path  style="opacity:0.21" d="M 76.939453,7 A 4,4 0 0 0 73,11 4,4 0 0 0 73.03125,11.496094 4,4 0 0 1 76.939453,8 a 4,4 0 0 1 0.06055,0 4,4 0 0 1 3.96875,3.496094 A 4,4 0 0 0 81,11 4,4 0 0 0 77,7 4,4 0 0 0 76.93945,7 Z m 1.996094,4.498047 A 2,2 0 0 1 77,13 2,2 0 0 1 75.064453,11.501953 2,2 0 0 0 75,12 a 2,2 0 0 0 2,2 2,2 0 0 0 2,-2 2,2 0 0 0 -0.06445,-0.501953 z"/>
 </g>
 <g id="deactivated-center" transform="translate(22)">
  <rect style="opacity:0.001"  width="22" height="22" x="66" y="0"/>
  <path  style="opacity:0.2;fill:#ffffff" d="M 76.939453,8 A 4,4 0 0 0 73,12 a 4,4 0 0 0 4,4 4,4 0 0 0 4,-4 4,4 0 0 0 -4,-4 4,4 0 0 0 -0.06055,0 z m 0.01172,2 a 2,2 0 0 1 0.04883,0 2,2 0 0 1 2,2 2,2 0 0 1 -2,2 2,2 0 0 1 -2,-2 2,2 0 0 1 1.95117,-2 z"/>
  <path  style="fill:#aaaaaa" d="M 76.939453,7 A 4,4 0 0 0 73,11 a 4,4 0 0 0 4,4 4,4 0 0 0 4,-4 4,4 0 0 0 -4,-4 4,4 0 0 0 -0.06055,0 z m 0.01172,2 a 2,2 0 0 1 0.04883,0 2,2 0 0 1 2,2 2,2 0 0 1 -2,2 2,2 0 0 1 -2,-2 2,2 0 0 1 1.95117,-2 z"/>
  <path  style="opacity:0.21" d="M 76.939453,7 A 4,4 0 0 0 73,11 4,4 0 0 0 73.03125,11.496094 4,4 0 0 1 76.939453,8 a 4,4 0 0 1 0.06055,0 4,4 0 0 1 3.96875,3.496094 A 4,4 0 0 0 81,11 4,4 0 0 0 77,7 4,4 0 0 0 76.93945,7 Z m 1.996094,4.498047 A 2,2 0 0 1 77,13 2,2 0 0 1 75.064453,11.501953 2,2 0 0 0 75,12 a 2,2 0 0 0 2,2 2,2 0 0 0 2,-2 2,2 0 0 0 -0.06445,-0.501953 z"/>
 </g>
</svg>
