<svg xmlns="http://www.w3.org/2000/svg" id="svg4" width="144" height="144" version="1.1">
 <path id="path847" style="opacity:0.5;fill:#ffffff" d="M 82.119141,5.6894531 60,7.84375 v 92.66016 L 81.880859,97.152344 V 57.646484 L 112.19336,101.46484 135.65625,94.041016 105.00977,51.900391 135.89648,12.154297 111.95703,6.6484375 81.880859,46.394531 Z M 31.650391,28.005859 v 0.0059 c -0.254698,0.02641 -0.500138,0.138017 -0.691407,0.330078 l -8.853515,8.851562 c -0.372201,0.373181 -0.442365,0.952327 -0.167969,1.404297 l 10.365234,17.06836 c -1.838235,3.090384 -3.312253,6.422543 -4.365234,9.9375 L 8.9101562,69.560547 C 8.3807789,69.669973 8,70.14035 8,70.683594 v 12.517578 c 0,0.529433 0.3629435,0.988054 0.8730469,1.111328 l 18.4667971,4.513672 c 0.984828,4.070879 2.510344,7.929576 4.527344,11.476558 l -10.689454,16.30079 c -0.298242,0.45564 -0.23494,1.05573 0.150391,1.43945 l 8.849609,8.85156 c 0.372201,0.37129 0.952368,0.44251 1.40625,0.16992 l 16.75,-10.17187 c 3.290362,1.89869 6.839463,3.39101 10.589844,4.4043 l 3.908203,18.79296 C 62.942022,140.62249 63.413378,141 63.953125,141 h 12.517578 c 0.526292,0 0.985714,-0.35873 1.111328,-0.875 l 4.603516,-18.83008 c 3.865981,-1.04337 7.523695,-2.59899 10.894531,-4.58398 l 16.505862,10.82422 c 0.45388,0.29885 1.05419,0.23876 1.43945,-0.14649 l 8.85352,-8.85156 c 0.37446,-0.37431 0.44118,-0.95158 0.16601,-1.40234 l -6.02734,-9.93165 -1.94922,0.61524 c -0.2842,0.0898 -0.59455,-0.015 -0.76172,-0.26367 0,0 -3.84258,-5.62516 -8.80664,-12.890628 C 96.565648,106.27805 84.492843,114 70.550781,114 50.742502,114 35,98.174465 35,78.365234 35,63.792952 43.522651,51.260499 56,45.646484 v -9.253906 c -2.270885,0.794434 -4.614114,1.75279 -6.699219,2.888672 -0.0015,-0.0014 -0.0038,-0.0041 -0.0098,-0.01172 L 32.396484,28.1875 c -0.22753,-0.148669 -0.491492,-0.207679 -0.746093,-0.181641 z"/>
 <path id="path839" style="fill:#878787" d="M 82.119141 4.6894531 L 60 6.84375 L 60 99.503906 L 81.880859 96.152344 L 81.880859 56.646484 L 112.19336 100.46484 L 135.65625 93.041016 L 105.00977 50.900391 L 135.89648 11.154297 L 111.95703 5.6484375 L 81.880859 45.394531 L 82.119141 4.6894531 z M 31.650391 27.005859 L 31.650391 27.011719 C 31.395693 27.038129 31.150253 27.149736 30.958984 27.341797 L 22.105469 36.193359 C 21.733268 36.56654 21.663104 37.145686 21.9375 37.597656 L 32.302734 54.666016 C 30.464499 57.7564 28.990481 61.088559 27.9375 64.603516 L 8.9101562 68.560547 C 8.3807789 68.669973 8 69.14035 8 69.683594 L 8 82.201172 C 8 82.730605 8.3629435 83.189226 8.8730469 83.3125 L 27.339844 87.826172 C 28.324672 91.897051 29.850188 95.755748 31.867188 99.302734 L 21.177734 115.60352 C 20.879492 116.05916 20.942794 116.65925 21.328125 117.04297 L 30.177734 125.89453 C 30.549935 126.26582 31.130102 126.33704 31.583984 126.06445 L 48.333984 115.89258 C 51.624346 117.79127 55.173447 119.28359 58.923828 120.29688 L 62.832031 139.08984 C 62.942022 139.62249 63.413378 140 63.953125 140 L 76.470703 140 C 76.996995 140 77.456417 139.64127 77.582031 139.125 L 82.185547 120.29492 C 86.051528 119.25155 89.709242 117.69593 93.080078 115.71094 L 109.58594 126.53516 C 110.03982 126.83401 110.64013 126.77392 111.02539 126.38867 L 119.87891 117.53711 C 120.25337 117.1628 120.32009 116.58553 120.04492 116.13477 L 114.01758 106.20312 L 112.06836 106.81836 C 111.78416 106.90816 111.47381 106.80334 111.30664 106.55469 C 111.30664 106.55469 107.46406 100.92953 102.5 93.664062 C 96.565648 105.27805 84.492843 113 70.550781 113 C 50.742502 113 35 97.174465 35 77.365234 C 35 62.792952 43.522651 50.260499 56 44.646484 L 56 35.392578 C 53.729115 36.187012 51.385886 37.145368 49.300781 38.28125 C 49.299281 38.27985 49.297016 38.277151 49.291016 38.269531 L 32.396484 27.1875 C 32.168954 27.038831 31.904992 26.979821 31.650391 27.005859 z"/>
 <path id="path836" style="fill:#000000;opacity:0.21" d="M 82.119141 4.6894531 L 60 6.84375 L 60 7.84375 L 82.113281 5.6894531 L 82.119141 4.6894531 z M 111.95703 5.6484375 L 81.886719 45.386719 L 81.880859 46.394531 L 111.95703 6.6484375 L 135.23633 12.001953 L 135.89648 11.154297 L 111.95703 5.6484375 z M 31.650391 27.005859 L 31.650391 27.011719 C 31.395693 27.038129 31.150253 27.149736 30.958984 27.341797 L 22.105469 36.193359 C 21.761244 36.53849 21.688442 37.056296 21.894531 37.490234 C 21.948268 37.382945 22.017153 37.281907 22.105469 37.193359 L 30.958984 28.341797 C 31.150253 28.149736 31.395693 28.038129 31.650391 28.011719 L 31.650391 28.005859 C 31.904992 27.979821 32.168954 28.038831 32.396484 28.1875 L 49.291016 39.269531 C 49.297016 39.277151 49.299281 39.27985 49.300781 39.28125 C 51.385886 38.145368 53.729115 37.187012 56 36.392578 L 56 35.392578 C 53.729115 36.187012 51.385886 37.145368 49.300781 38.28125 C 49.299281 38.27985 49.297016 38.277151 49.291016 38.269531 L 32.396484 27.1875 C 32.168954 27.038831 31.904992 26.979821 31.650391 27.005859 z M 105.38477 51.416016 L 105.00977 51.900391 L 135.06445 93.228516 L 135.65625 93.041016 L 105.38477 51.416016 z M 32.013672 55.189453 C 30.31549 58.133838 28.932175 61.283189 27.9375 64.603516 L 8.9101562 68.560547 C 8.3807789 68.669973 8 69.14035 8 69.683594 L 8 70.683594 C 8 70.14035 8.3807789 69.669973 8.9101562 69.560547 L 27.9375 65.603516 C 28.990481 62.088559 30.464499 58.7564 32.302734 55.666016 L 32.013672 55.189453 z M 35.015625 77.966797 C 35.014186 78.100512 35 78.23117 35 78.365234 C 35 98.174465 50.742502 114 70.550781 114 C 84.492843 114 96.565648 106.27805 102.5 94.664062 C 107.46406 101.92953 111.30664 107.55469 111.30664 107.55469 C 111.47381 107.80336 111.78416 107.90816 112.06836 107.81836 L 114.01758 107.20312 L 120.04492 117.13477 C 120.0656 117.16865 120.07106 117.20702 120.08789 117.24219 C 120.2626 116.89666 120.25556 116.47981 120.04492 116.13477 L 114.01758 106.20312 L 112.06836 106.81836 C 111.78416 106.90816 111.47381 106.80334 111.30664 106.55469 C 111.30664 106.55469 107.46406 100.92953 102.5 93.664062 C 96.565648 105.27805 84.492843 113 70.550781 113 C 50.944261 113 35.331853 97.492717 35.015625 77.966797 z M 31.570312 99.755859 L 21.177734 115.60352 C 20.948526 115.95369 20.937247 116.38712 21.117188 116.74414 C 21.139316 116.69766 21.148868 116.64762 21.177734 116.60352 L 31.867188 100.30273 C 31.764673 100.12246 31.670281 99.937732 31.570312 99.755859 z"/>
</svg>
