<svg xmlns="http://www.w3.org/2000/svg" id="svg45" width="22" height="22" version="1.1">
 <g id="g861">
  <rect id="rect846" width="22" height="22" x="0" y="0" style="opacity:0.001"/>
  <path id="path850" style="opacity:0.5;fill:#ffffff" d="m 7,8 v 2 h 8 V 8 Z m 0,3 v 2 h 8 v -2 z m 0,3 v 2 h 8 v -2 z"/>
  <path id="rect838" style="fill:#878787" d="m 7,7 v 2 h 8 V 7 Z m 0,3 v 2 h 8 v -2 z m 0,3 v 2 h 8 v -2 z"/>
  <path id="path852" style="opacity:0.21" d="M 7 7 L 7 8 L 15 8 L 15 7 L 7 7 z M 7 10 L 7 11 L 15 11 L 15 10 L 7 10 z M 7 13 L 7 14 L 15 14 L 15 13 L 7 13 z"/>
 </g>
</svg>
