<svg xmlns="http://www.w3.org/2000/svg" xmlns:xlink="http://www.w3.org/1999/xlink" id="svg45" width="22" height="22" version="1.1">
 <defs id="defs49">
  <linearGradient id="linearGradient832">
   <stop style="stop-color:#4381c1;stop-opacity:1" id="stop828" offset="0"/>
   <stop style="stop-color:#5fa0e4;stop-opacity:1" id="stop830" offset="1"/>
  </linearGradient>
  <linearGradient id="linearGradient872" x1="13" x2="13" y1="7" y2="16" gradientUnits="userSpaceOnUse" xlink:href="#linearGradient832"/>
 </defs>
 <g id="g896">
  <path id="path983" d="M 3.300781,0 C 1.491611,0 0,1.4916113 0,3.3007812 V 18.699219 C 0,20.508389 1.491611,22 3.300781,22 H 18.699219 C 20.508389,22 22,20.508389 22,18.699219 V 3.3007812 C 22,1.4916113 20.508389,0 18.699219,0 Z M 3.222651,1 H 18.777344 C 20.008455,1 21,1.9915451 21,3.2226562 V 18.777344 C 21,20.008455 20.008455,21 18.777344,21 H 3.222656 C 1.991545,21 1,20.008455 1,18.777344 V 3.2226562 C 1,1.9915451 1.991545,1 3.222656,1 Z" style="opacity:0.37"/>
  <path id="path853" style="opacity:0.5;fill:#ffffff" d="m 7,8 v 8 h 8 V 8 Z m 2,2 h 4 v 4 H 9 Z"/>
  <path id="rect843" style="fill:url(#linearGradient872)" d="m 7,7 v 8 h 8 V 7 Z m 2,2 h 4 v 4 H 9 Z"/>
  <path id="path848" style="fill:#1f61a9" d="m 7,7 v 1 h 8 V 7 Z m 2,6 v 1 h 4 v -1 z"/>
 </g>
</svg>
