<svg xmlns="http://www.w3.org/2000/svg" xmlns:xlink="http://www.w3.org/1999/xlink" id="svg45" width="22" height="22" version="1.1">
 <defs id="defs49">
  <linearGradient id="linearGradient832">
   <stop style="stop-color:#4381c1;stop-opacity:1" id="stop828" offset="0"/>
   <stop style="stop-color:#5fa0e4;stop-opacity:1" id="stop830" offset="1"/>
  </linearGradient>
  <linearGradient id="linearGradient1094" x1="55" x2="55" y1="7" y2="16" gradientTransform="translate(-44)" gradientUnits="userSpaceOnUse" xlink:href="#linearGradient832"/>
 </defs>
 <g id="g1014">
  <path id="path956" d="m 7,8 v 1 1 h 1 v 1 h 1 v 1 h 1 v 1 H 8 v 1 H 7 v 2 h 2 v -1 h 1 v -1 h 1 1 v 1 h 1 v 1 h 2 v -2 h -1 v -1 h -2 v -1 h 1 v -1 h 1 v -1 h 1 V 9 8 h -2 v 1 h -1 v 1 H 11 10 V 9 H 9 V 8 Z" style="opacity:0.5;fill:#ffffff"/>
  <path style="fill:url(#linearGradient1094)" id="path958" d="m 7,7 v 1 1 h 1 v 1 h 1 v 1 1 H 8 v 1 H 7 v 2 h 2 v -1 h 1 v -1 h 1 1 v 1 h 1 v 1 h 2 v -2 h -1 v -1 h -1 v -1 -1 h 1 V 9 h 1 V 8 7 H 13 V 8 H 12 V 9 H 11 10 V 8 H 9 V 7 Z"/>
  <path id="path962" d="M 7,7 V 8 H 9 V 7 Z m 2,1 v 1 h 1 V 8 Z m 1,1 v 1 h 1 1 V 9 h -1 z m 2,0 h 1 V 8 h -1 z m 1,-1 h 2 V 7 h -2 z m -5,4 v 1 h 1 v -1 z m 0,1 H 7 v 1 h 1 z m 5,-1 v 1 h 1 v -1 z m 1,1 v 1 h 1 v -1 z" style="fill:#1f61a9"/>
  <path id="path983" d="M 3.300781,0 C 1.491611,0 0,1.4916113 0,3.3007812 V 18.699219 C 0,20.508389 1.491611,22 3.300781,22 H 18.699219 C 20.508389,22 22,20.508389 22,18.699219 V 3.3007812 C 22,1.4916113 20.508389,0 18.699219,0 Z M 3.222651,1 H 18.777344 C 20.008455,1 21,1.9915451 21,3.2226562 V 18.777344 C 21,20.008455 20.008455,21 18.777344,21 H 3.222656 C 1.991545,21 1,20.008455 1,18.777344 V 3.2226562 C 1,1.9915451 1.991545,1 3.222656,1 Z" style="opacity:0.37"/>
 </g>
</svg>
