<svg xmlns="http://www.w3.org/2000/svg" xmlns:xlink="http://www.w3.org/1999/xlink" id="svg6" width="30" height="12" version="1.1">
 <defs id="defs10">
  <linearGradient id="linearGradient841">
   <stop style="stop-color:#c4c4c4;stop-opacity:1" id="stop837" offset="0"/>
   <stop style="stop-color:#c6c6c6;stop-opacity:1" id="stop839" offset="1"/>
  </linearGradient>
  <linearGradient id="linearGradient843" x1="18" x2="18" y1="0" y2="12" gradientUnits="userSpaceOnUse" xlink:href="#linearGradient841"/>
 </defs>
 <rect style="fill:url(#linearGradient843)" id="rect2" width="30" height="12" x="0" y="0"/>
 <path style="fill:#3c3c3c" id="path4" d="m 23,3 h 2 v 2 h 2 V 7 H 25 V 9 H 23 V 7 H 21 V 5 h 2 z"/>
 <path id="path6" style="opacity:0.37" d="M 10.400391 0 C 9.0707896 0 8 1.0707902 8 2.4003906 L 8 9.5996094 C 8 10.929209 9.0707896 12 10.400391 12 L 16 12 L 17.599609 12 L 20.400391 12 L 21.199219 12 L 27.599609 12 C 28.929209 12 30 10.929209 30 9.5996094 L 30 2.4003906 C 30 1.0707902 28.929209 0 27.599609 0 L 21.199219 0 L 20.400391 0 L 17.599609 0 L 16 0 L 10.400391 0 z M 10.400391 1 L 16 1 L 17.599609 1 L 20.400391 1 L 21.199219 1 L 27.599609 1 C 28.392311 1 29 1.6076889 29 2.4003906 L 29 9.5996094 C 29 10.392311 28.392311 11 27.599609 11 L 21.199219 11 L 20.400391 11 L 17.599609 11 L 16 11 L 10.400391 11 C 9.6076876 11 9 10.392312 9 9.5996094 L 9 2.4003906 C 9 1.6076879 9.6076874 1 10.400391 1 z"/>
 <rect style="fill:#828282" id="rect837" width="1" height="12" x="0" y="0"/>
 <path id="path847" style="opacity:0.6;fill:#ffffff" d="M 10.400391 1 C 9.607687 1 9 1.6076879 9 2.4003906 L 9 3.4003906 C 9 2.6076879 9.607687 2 10.400391 2 L 16 2 L 17.599609 2 L 20.400391 2 L 21.199219 2 L 27.599609 2 C 28.392311 2 29 2.6076889 29 3.4003906 L 29 2.4003906 C 29 1.6076889 28.392311 1 27.599609 1 L 21.199219 1 L 20.400391 1 L 17.599609 1 L 16 1 L 10.400391 1 z"/>
</svg>
