<svg xmlns="http://www.w3.org/2000/svg" xmlns:xlink="http://www.w3.org/1999/xlink" id="svg2" width="32" height="32" version="1.1">
 <defs id="defs6">
  <linearGradient id="linearGradient841">
   <stop style="stop-color:#3289ad;stop-opacity:1" id="stop837" offset="0"/>
   <stop style="stop-color:#5ca8c2;stop-opacity:1" id="stop839" offset="1"/>
  </linearGradient>
  <linearGradient id="linearGradient843" x1="16" x2="22" y1="318.333" y2="333.333" gradientUnits="userSpaceOnUse" xlink:href="#linearGradient841"/>
 </defs>
 <g id="g10" transform="translate(0,-309.33334)">
  <circle style="opacity:1;fill:url(#linearGradient843);stroke-width:23.4783;stroke-linecap:round;stroke-linejoin:round;fill-opacity:1" id="path835" cx="16" cy="325.333" r="13.5"/>
  <path id="path845" style="opacity:0.05;fill:none;stroke-width:0.5;stroke-linecap:round;stroke-linejoin:round;stroke:#000000;stroke-opacity:1;stroke-miterlimit:4;stroke-dasharray:none" transform="translate(0,309.33334)" d="M 16 2 A 14 14 0 0 0 2 16 A 14 14 0 0 0 16 30 A 14 14 0 0 0 30 16 A 14 14 0 0 0 16 2 z M 20 9 C 20.215032 9.001 20.428544 9.0204406 20.640625 9.0566406 C 21.358156 9.1792806 22.068548 9.5255233 22.699219 10.058594 C 22.889212 10.219184 23.344084 10.689473 23.519531 10.908203 C 23.808058 11.267903 24.077914 11.670834 24.310547 12.089844 L 24.431641 12.308594 L 24.970703 12.541016 C 25.26707 12.669206 25.619135 12.821756 25.753906 12.878906 C 25.992325 12.980016 25.999677 12.984539 26 13.042969 C 26.000297 13.096569 25.980717 13.118011 25.816406 13.238281 C 25.261436 13.644641 24.896442 13.91984 24.890625 13.9375 C 24.887025 13.9485 24.912756 13.973841 24.947266 13.994141 C 25.044516 14.051341 25.949345 14.632275 25.966797 14.648438 C 25.975297 14.656436 25.977903 14.685844 25.970703 14.714844 C 25.959163 14.761344 25.878603 14.806315 25.279297 15.109375 C 24.906193 15.298035 24.587007 15.464214 24.570312 15.476562 C 24.551493 15.490463 24.522147 15.588045 24.492188 15.734375 C 24.379898 16.282915 24.137613 17.065422 23.951172 17.482422 C 23.936802 17.514522 23.875679 17.649303 23.816406 17.783203 C 23.547856 18.389903 23.080443 19.186519 22.693359 19.693359 C 21.771473 20.900469 20.673376 21.766588 19.345703 22.330078 C 17.116367 23.268468 15.465492 23.112551 13.728516 22.525391 C 12.611797 22.129701 11.636346 21.499467 10.78125 20.623047 L 10.542969 20.380859 L 10.021484 20.367188 C 9.1027791 20.345987 8.4480455 20.260799 7.8007812 20.074219 C 6.8161817 19.790399 6.1774683 19.32658 6.0175781 18.78125 C 5.9824451 18.66143 5.983756 18.660694 6.1582031 18.708984 C 7.2315435 19.005814 7.741538 18.906447 8.8515625 18.341797 C 9.0314998 18.250297 9.1957933 18.162294 9.2167969 18.146484 C 9.2533249 18.118984 9.2454426 18.106918 9.015625 17.867188 C 8.5980569 17.431667 8.2209049 16.895356 7.9296875 16.322266 C 7.8888615 16.241966 7.8496679 16.168913 7.8417969 16.158203 C 7.8339269 16.147503 7.7639741 15.993156 7.6875 15.816406 C 7.611026 15.639656 7.5192484 15.42759 7.4824219 15.34375 C 7.4455949 15.25995 7.418272 15.188327 7.421875 15.185547 C 7.425475 15.182547 7.555412 15.16925 7.7109375 15.15625 C 8.433608 15.09615 9.2134396 14.90007 10.064453 14.5625 C 10.588067 14.3548 11.492123 14.055109 12.056641 13.724609 C 12.151901 13.668809 12.374183 13.53978 12.548828 13.4375 C 13.598191 12.82292 14.530361 12.389342 15.222656 12.195312 L 15.402344 12.144531 L 15.580078 11.890625 C 15.677308 11.750925 15.859465 11.483825 15.984375 11.296875 C 16.261815 10.881645 16.469429 10.621791 16.707031 10.394531 C 17.65726 9.4856516 18.838828 8.99265 20 9 z M 21 11 A 1 1 0 0 0 20 12 A 1 1 0 0 0 21 13 A 1 1 0 0 0 22 12 A 1 1 0 0 0 21 11 z M 16.730469 13 C 16.56312 13.001 16.379058 13.025419 16.177734 13.074219 C 15.424516 13.257099 14.784049 13.569658 12.564453 14.830078 C 11.585253 15.386128 10.8381 15.745471 10.273438 15.931641 C 9.9451226 16.039881 9.5149266 16.105601 9.2929688 16.082031 C 9.2292347 16.075031 9.1777344 16.075984 9.1777344 16.083984 C 9.1777344 16.107184 9.4624378 16.654789 9.5957031 16.886719 C 9.8369268 17.306519 9.9994056 17.525206 10.289062 17.822266 C 10.879922 18.428216 11.657912 18.813419 12.560547 18.949219 C 12.863227 18.994719 13.381563 19.014534 13.679688 18.990234 C 14.464601 18.926134 15.284719 18.662079 15.960938 18.255859 C 16.098236 18.173359 16.386952 17.979365 16.412109 17.953125 C 16.417409 17.948125 16.487128 17.890772 16.566406 17.826172 C 16.804151 17.632732 17.045853 17.378766 17.285156 17.072266 C 17.376416 16.955396 17.59664 16.585127 17.664062 16.435547 C 17.904501 15.902107 17.990271 15.538306 18.005859 14.972656 C 18.022069 14.384556 17.957138 13.989742 17.789062 13.638672 C 17.583341 13.208952 17.232515 12.99662 16.730469 13 z"/>
  <path id="path847" style="opacity:0.05;fill:none;stroke-width:1;stroke-linecap:round;stroke-linejoin:round;stroke:#000000;stroke-opacity:1;stroke-miterlimit:4;stroke-dasharray:none" transform="translate(0,309.33334)" d="M 16 2 A 14 14 0 0 0 2 16 A 14 14 0 0 0 16 30 A 14 14 0 0 0 30 16 A 14 14 0 0 0 16 2 z M 20 9 C 20.215032 9.001 20.428544 9.0204406 20.640625 9.0566406 C 21.358156 9.1792806 22.068548 9.5255233 22.699219 10.058594 C 22.889212 10.219184 23.344084 10.689473 23.519531 10.908203 C 23.808058 11.267903 24.077914 11.670834 24.310547 12.089844 L 24.431641 12.308594 L 24.970703 12.541016 C 25.26707 12.669206 25.619135 12.821756 25.753906 12.878906 C 25.992325 12.980016 25.999677 12.984539 26 13.042969 C 26.000297 13.096569 25.980717 13.118011 25.816406 13.238281 C 25.261436 13.644641 24.896442 13.91984 24.890625 13.9375 C 24.887025 13.9485 24.912756 13.973841 24.947266 13.994141 C 25.044516 14.051341 25.949345 14.632275 25.966797 14.648438 C 25.975297 14.656436 25.977903 14.685844 25.970703 14.714844 C 25.959163 14.761344 25.878603 14.806315 25.279297 15.109375 C 24.906193 15.298035 24.587007 15.464214 24.570312 15.476562 C 24.551493 15.490463 24.522147 15.588045 24.492188 15.734375 C 24.379898 16.282915 24.137613 17.065422 23.951172 17.482422 C 23.936802 17.514522 23.875679 17.649303 23.816406 17.783203 C 23.547856 18.389903 23.080443 19.186519 22.693359 19.693359 C 21.771473 20.900469 20.673376 21.766588 19.345703 22.330078 C 17.116367 23.268468 15.465492 23.112551 13.728516 22.525391 C 12.611797 22.129701 11.636346 21.499467 10.78125 20.623047 L 10.542969 20.380859 L 10.021484 20.367188 C 9.1027791 20.345987 8.4480455 20.260799 7.8007812 20.074219 C 6.8161817 19.790399 6.1774683 19.32658 6.0175781 18.78125 C 5.9824451 18.66143 5.983756 18.660694 6.1582031 18.708984 C 7.2315435 19.005814 7.741538 18.906447 8.8515625 18.341797 C 9.0314998 18.250297 9.1957933 18.162294 9.2167969 18.146484 C 9.2533249 18.118984 9.2454426 18.106918 9.015625 17.867188 C 8.5980569 17.431667 8.2209049 16.895356 7.9296875 16.322266 C 7.8888615 16.241966 7.8496679 16.168913 7.8417969 16.158203 C 7.8339269 16.147503 7.7639741 15.993156 7.6875 15.816406 C 7.611026 15.639656 7.5192484 15.42759 7.4824219 15.34375 C 7.4455949 15.25995 7.418272 15.188327 7.421875 15.185547 C 7.425475 15.182547 7.555412 15.16925 7.7109375 15.15625 C 8.433608 15.09615 9.2134396 14.90007 10.064453 14.5625 C 10.588067 14.3548 11.492123 14.055109 12.056641 13.724609 C 12.151901 13.668809 12.374183 13.53978 12.548828 13.4375 C 13.598191 12.82292 14.530361 12.389342 15.222656 12.195312 L 15.402344 12.144531 L 15.580078 11.890625 C 15.677308 11.750925 15.859465 11.483825 15.984375 11.296875 C 16.261815 10.881645 16.469429 10.621791 16.707031 10.394531 C 17.65726 9.4856516 18.838828 8.99265 20 9 z M 21 11 A 1 1 0 0 0 20 12 A 1 1 0 0 0 21 13 A 1 1 0 0 0 22 12 A 1 1 0 0 0 21 11 z M 16.730469 13 C 16.56312 13.001 16.379058 13.025419 16.177734 13.074219 C 15.424516 13.257099 14.784049 13.569658 12.564453 14.830078 C 11.585253 15.386128 10.8381 15.745471 10.273438 15.931641 C 9.9451226 16.039881 9.5149266 16.105601 9.2929688 16.082031 C 9.2292347 16.075031 9.1777344 16.075984 9.1777344 16.083984 C 9.1777344 16.107184 9.4624378 16.654789 9.5957031 16.886719 C 9.8369268 17.306519 9.9994056 17.525206 10.289062 17.822266 C 10.879922 18.428216 11.657912 18.813419 12.560547 18.949219 C 12.863227 18.994719 13.381563 19.014534 13.679688 18.990234 C 14.464601 18.926134 15.284719 18.662079 15.960938 18.255859 C 16.098236 18.173359 16.386952 17.979365 16.412109 17.953125 C 16.417409 17.948125 16.487128 17.890772 16.566406 17.826172 C 16.804151 17.632732 17.045853 17.378766 17.285156 17.072266 C 17.376416 16.955396 17.59664 16.585127 17.664062 16.435547 C 17.904501 15.902107 17.990271 15.538306 18.005859 14.972656 C 18.022069 14.384556 17.957138 13.989742 17.789062 13.638672 C 17.583341 13.208952 17.232515 12.99662 16.730469 13 z"/>
  <path id="path849" style="opacity:0.05;fill:none;stroke-width:1.5;stroke-linecap:round;stroke-linejoin:round;stroke:#000000;stroke-opacity:1;stroke-miterlimit:4;stroke-dasharray:none" transform="translate(0,309.33334)" d="M 16 2 A 14 14 0 0 0 2 16 A 14 14 0 0 0 16 30 A 14 14 0 0 0 30 16 A 14 14 0 0 0 16 2 z M 20 9 C 20.215032 9.001 20.428544 9.0204406 20.640625 9.0566406 C 21.358156 9.1792806 22.068548 9.5255233 22.699219 10.058594 C 22.889212 10.219184 23.344084 10.689473 23.519531 10.908203 C 23.808058 11.267903 24.077914 11.670834 24.310547 12.089844 L 24.431641 12.308594 L 24.970703 12.541016 C 25.26707 12.669206 25.619135 12.821756 25.753906 12.878906 C 25.992325 12.980016 25.999677 12.984539 26 13.042969 C 26.000297 13.096569 25.980717 13.118011 25.816406 13.238281 C 25.261436 13.644641 24.896442 13.91984 24.890625 13.9375 C 24.887025 13.9485 24.912756 13.973841 24.947266 13.994141 C 25.044516 14.051341 25.949345 14.632275 25.966797 14.648438 C 25.975297 14.656436 25.977903 14.685844 25.970703 14.714844 C 25.959163 14.761344 25.878603 14.806315 25.279297 15.109375 C 24.906193 15.298035 24.587007 15.464214 24.570312 15.476562 C 24.551493 15.490463 24.522147 15.588045 24.492188 15.734375 C 24.379898 16.282915 24.137613 17.065422 23.951172 17.482422 C 23.936802 17.514522 23.875679 17.649303 23.816406 17.783203 C 23.547856 18.389903 23.080443 19.186519 22.693359 19.693359 C 21.771473 20.900469 20.673376 21.766588 19.345703 22.330078 C 17.116367 23.268468 15.465492 23.112551 13.728516 22.525391 C 12.611797 22.129701 11.636346 21.499467 10.78125 20.623047 L 10.542969 20.380859 L 10.021484 20.367188 C 9.1027791 20.345987 8.4480455 20.260799 7.8007812 20.074219 C 6.8161817 19.790399 6.1774683 19.32658 6.0175781 18.78125 C 5.9824451 18.66143 5.983756 18.660694 6.1582031 18.708984 C 7.2315435 19.005814 7.741538 18.906447 8.8515625 18.341797 C 9.0314998 18.250297 9.1957933 18.162294 9.2167969 18.146484 C 9.2533249 18.118984 9.2454426 18.106918 9.015625 17.867188 C 8.5980569 17.431667 8.2209049 16.895356 7.9296875 16.322266 C 7.8888615 16.241966 7.8496679 16.168913 7.8417969 16.158203 C 7.8339269 16.147503 7.7639741 15.993156 7.6875 15.816406 C 7.611026 15.639656 7.5192484 15.42759 7.4824219 15.34375 C 7.4455949 15.25995 7.418272 15.188327 7.421875 15.185547 C 7.425475 15.182547 7.555412 15.16925 7.7109375 15.15625 C 8.433608 15.09615 9.2134396 14.90007 10.064453 14.5625 C 10.588067 14.3548 11.492123 14.055109 12.056641 13.724609 C 12.151901 13.668809 12.374183 13.53978 12.548828 13.4375 C 13.598191 12.82292 14.530361 12.389342 15.222656 12.195312 L 15.402344 12.144531 L 15.580078 11.890625 C 15.677308 11.750925 15.859465 11.483825 15.984375 11.296875 C 16.261815 10.881645 16.469429 10.621791 16.707031 10.394531 C 17.65726 9.4856516 18.838828 8.99265 20 9 z M 21 11 A 1 1 0 0 0 20 12 A 1 1 0 0 0 21 13 A 1 1 0 0 0 22 12 A 1 1 0 0 0 21 11 z M 16.730469 13 C 16.56312 13.001 16.379058 13.025419 16.177734 13.074219 C 15.424516 13.257099 14.784049 13.569658 12.564453 14.830078 C 11.585253 15.386128 10.8381 15.745471 10.273438 15.931641 C 9.9451226 16.039881 9.5149266 16.105601 9.2929688 16.082031 C 9.2292347 16.075031 9.1777344 16.075984 9.1777344 16.083984 C 9.1777344 16.107184 9.4624378 16.654789 9.5957031 16.886719 C 9.8369268 17.306519 9.9994056 17.525206 10.289062 17.822266 C 10.879922 18.428216 11.657912 18.813419 12.560547 18.949219 C 12.863227 18.994719 13.381563 19.014534 13.679688 18.990234 C 14.464601 18.926134 15.284719 18.662079 15.960938 18.255859 C 16.098236 18.173359 16.386952 17.979365 16.412109 17.953125 C 16.417409 17.948125 16.487128 17.890772 16.566406 17.826172 C 16.804151 17.632732 17.045853 17.378766 17.285156 17.072266 C 17.376416 16.955396 17.59664 16.585127 17.664062 16.435547 C 17.904501 15.902107 17.990271 15.538306 18.005859 14.972656 C 18.022069 14.384556 17.957138 13.989742 17.789062 13.638672 C 17.583341 13.208952 17.232515 12.99662 16.730469 13 z"/>
  <path id="path864" style="opacity:1;fill:#ffffff;stroke-width:2.19971;stroke-linecap:round;stroke-linejoin:round" transform="translate(0,309.33334)" d="M 16 2 A 14 14 0 0 0 2 16 A 14 14 0 0 0 16 30 A 14 14 0 0 0 30 16 A 14 14 0 0 0 16 2 z M 20 9 C 20.215032 9.001 20.428544 9.0204406 20.640625 9.0566406 C 21.358156 9.1792806 22.068548 9.5255233 22.699219 10.058594 C 22.889212 10.219184 23.344084 10.689473 23.519531 10.908203 C 23.808058 11.267903 24.077914 11.670834 24.310547 12.089844 L 24.431641 12.308594 L 24.970703 12.541016 C 25.26707 12.669206 25.619135 12.821756 25.753906 12.878906 C 25.992325 12.980016 25.999677 12.984539 26 13.042969 C 26.000297 13.096569 25.980717 13.118011 25.816406 13.238281 C 25.261436 13.644641 24.896442 13.91984 24.890625 13.9375 C 24.887025 13.9485 24.912756 13.973841 24.947266 13.994141 C 25.044516 14.051341 25.949345 14.632275 25.966797 14.648438 C 25.975297 14.656436 25.977903 14.685844 25.970703 14.714844 C 25.959163 14.761344 25.878603 14.806315 25.279297 15.109375 C 24.906193 15.298035 24.587007 15.464214 24.570312 15.476562 C 24.551493 15.490463 24.522147 15.588045 24.492188 15.734375 C 24.379898 16.282915 24.137613 17.065422 23.951172 17.482422 C 23.936802 17.514522 23.875679 17.649303 23.816406 17.783203 C 23.547856 18.389903 23.080443 19.186519 22.693359 19.693359 C 21.771473 20.900469 20.673376 21.766588 19.345703 22.330078 C 17.116367 23.268468 15.465492 23.112551 13.728516 22.525391 C 12.611797 22.129701 11.636346 21.499467 10.78125 20.623047 L 10.542969 20.380859 L 10.021484 20.367188 C 9.1027791 20.345987 8.4480455 20.260799 7.8007812 20.074219 C 6.8161817 19.790399 6.1774683 19.32658 6.0175781 18.78125 C 5.9824451 18.66143 5.983756 18.660694 6.1582031 18.708984 C 7.2315435 19.005814 7.741538 18.906447 8.8515625 18.341797 C 9.0314998 18.250297 9.1957933 18.162294 9.2167969 18.146484 C 9.2533249 18.118984 9.2454426 18.106918 9.015625 17.867188 C 8.5980569 17.431667 8.2209049 16.895356 7.9296875 16.322266 C 7.8888615 16.241966 7.8496679 16.168913 7.8417969 16.158203 C 7.8339269 16.147503 7.7639741 15.993156 7.6875 15.816406 C 7.611026 15.639656 7.5192484 15.42759 7.4824219 15.34375 C 7.4455949 15.25995 7.418272 15.188327 7.421875 15.185547 C 7.425475 15.182547 7.555412 15.16925 7.7109375 15.15625 C 8.433608 15.09615 9.2134396 14.90007 10.064453 14.5625 C 10.588067 14.3548 11.492123 14.055109 12.056641 13.724609 C 12.151901 13.668809 12.374183 13.53978 12.548828 13.4375 C 13.598191 12.82292 14.530361 12.389342 15.222656 12.195312 L 15.402344 12.144531 L 15.580078 11.890625 C 15.677308 11.750925 15.859465 11.483825 15.984375 11.296875 C 16.261815 10.881645 16.469429 10.621791 16.707031 10.394531 C 17.65726 9.4856516 18.838828 8.99265 20 9 z M 21 11 A 1 1 0 0 0 20 12 A 1 1 0 0 0 21 13 A 1 1 0 0 0 22 12 A 1 1 0 0 0 21 11 z M 16.730469 13 C 16.56312 13.001 16.379058 13.025419 16.177734 13.074219 C 15.424516 13.257099 14.784049 13.569658 12.564453 14.830078 C 11.585253 15.386128 10.8381 15.745471 10.273438 15.931641 C 9.9451226 16.039881 9.5149266 16.105601 9.2929688 16.082031 C 9.2292347 16.075031 9.1777344 16.075984 9.1777344 16.083984 C 9.1777344 16.107184 9.4624378 16.654789 9.5957031 16.886719 C 9.8369268 17.306519 9.9994056 17.525206 10.289062 17.822266 C 10.879922 18.428216 11.657912 18.813419 12.560547 18.949219 C 12.863227 18.994719 13.381563 19.014534 13.679688 18.990234 C 14.464601 18.926134 15.284719 18.662079 15.960938 18.255859 C 16.098236 18.173359 16.386952 17.979365 16.412109 17.953125 C 16.417409 17.948125 16.487128 17.890772 16.566406 17.826172 C 16.804151 17.632732 17.045853 17.378766 17.285156 17.072266 C 17.376416 16.955396 17.59664 16.585127 17.664062 16.435547 C 17.904501 15.902107 17.990271 15.538306 18.005859 14.972656 C 18.022069 14.384556 17.957138 13.989742 17.789062 13.638672 C 17.583341 13.208952 17.232515 12.99662 16.730469 13 z"/>
 </g>
</svg>
