<svg xmlns="http://www.w3.org/2000/svg" width="138" height="61" version="1">
 <path id="center" style="fill:#313334" d="m 87,8 v 48 h 48 V 8 Z"/>
 <rect id="hint-top-margin" style="fill:#ff0000" width="4" height="3" x="109" y="8"/>
 <rect id="hint-bottom-margin" style="fill:#ff0000" width="4" height="3" x="109" y="53"/>
 <rect id="hint-right-margin" style="fill:#ff0000" width="4" height="3" x="30" y="-135" transform="rotate(90)"/>
 <rect id="hint-left-margin" style="fill:#ff0000" width="4" height="3" x="30" y="-90" transform="rotate(90)"/>
 <rect id="hint-stretch-borders" style="fill:#ff0000" width="6" height="6" x="67" y="0"/>
 <path id="mask-bottom" d="m 3,58 v 3 h 48 v -3 z"/>
 <path id="mask-bottomleft" d="m 0,58 c 0,1.662 1.338,3 3,3 v -3 z"/>
 <path id="mask-bottomright" d="m 51,58 v 3 c 1.662,0 3,-1.338 3,-3 z"/>
 <path id="mask-center" d="M 3,10 V 58 H 51 V 10 Z"/>
 <path id="mask-topleft" d="M 3,7 C 1.33801,7 0,8.338 0,10 h 3 z"/>
 <path id="mask-top" d="m 3,7 v 3 H 51 V 7 Z"/>
 <path id="mask-left" d="M 0,10 V 58 H 3 V 10 Z"/>
 <path id="mask-right" d="m 51,10 v 48 h 3 V 10 Z"/>
 <path id="mask-topright" d="m 51,7 v 3 h 3 C 54,8.338 52.66201,7 51,7 Z"/>
 <g id="topleft" transform="translate(0,-74)">
  <path style="fill:#313334" d="m 87,78.999998 c -1.66199,0 -3,1.338 -3,3 h 3 z"/>
  <path style="opacity:0.16" d="M 87,78.999998 C 85.000389,79 83.971897,80.719674 84.000584,82 h 0.999805 c 0,-1 0.999806,-2 1.999611,-1.968752 z"/>
 </g>
 <g id="left" transform="translate(0,-74)">
  <path style="fill:#313334" d="m 84,130 h 3 V 82 h -3 z"/>
  <rect style="opacity:0.16" width="1" height="48" x="84" y="82"/>
 </g>
 <g id="top" transform="rotate(90,148,69)">
  <path style="fill:#313334" d="m 84,130 h 3 V 82 h -3 z"/>
  <rect style="opacity:0.16" width="1" height="48" x="84" y="82"/>
 </g>
 <g id="topright" transform="matrix(-1,0,0,1,222,-74)">
  <path style="fill:#313334" d="m 87,78.999998 c -1.66199,0 -3,1.338 -3,3 h 3 z"/>
  <path style="opacity:0.16" d="M 87,78.999998 C 85.000389,79 83.971897,80.719674 84.000584,82 h 0.999805 c 0,-1 0.999806,-2 1.999611,-1.968752 z"/>
 </g>
 <g id="bottomleft" transform="matrix(1,0,0,-1,-3.89e-4,138)">
  <path style="fill:#313334" d="m 87,78.999998 c -1.66199,0 -3,1.338 -3,3 h 3 z"/>
  <path style="opacity:0.16" d="M 87,78.999998 C 85.000389,79 83.971897,80.719674 84.000584,82 h 0.999805 c 0,-1 0.999806,-2 1.999611,-1.968752 z"/>
 </g>
 <g id="bottom" transform="matrix(0,-1,-1,0,216.99961,143)">
  <path style="fill:#313334" d="m 84,130 h 3 V 82 h -3 z"/>
  <rect style="opacity:0.16" width="1" height="48" x="84" y="82"/>
 </g>
 <g id="bottomright" transform="rotate(180,110.99981,69)">
  <path style="fill:#313334" d="m 87,78.999998 c -1.66199,0 -3,1.338 -3,3 h 3 z"/>
  <path style="opacity:0.16" d="M 87,78.999998 C 85.000389,79 83.971897,80.719674 84.000584,82 h 0.999805 c 0,-1 0.999806,-2 1.999611,-1.968752 z"/>
 </g>
 <g id="right" transform="matrix(-1,0,0,1,221.99961,-74)">
  <path style="fill:#313334" d="m 84,130 h 3 V 82 h -3 z"/>
  <rect style="opacity:0.16" width="1" height="48" x="84" y="82"/>
 </g>
</svg>
