<svg xmlns="http://www.w3.org/2000/svg" xmlns:xlink="http://www.w3.org/1999/xlink"  width="36" height="18" version="1">
 <defs id="defs16">
  <linearGradient id="linearGradient2443" x1="281" x2="281" y1="214" y2="201" gradientTransform="matrix(1,0,0,1.0769231,-253.00001,-214.46155)" gradientUnits="userSpaceOnUse" xlink:href="#linearGradient15645"/>
  <linearGradient id="linearGradient3181">
   <stop  style="stop-color:#eaeaea;stop-opacity:1" offset="0"/>
   <stop  style="stop-color:#dadada;stop-opacity:1" offset="1"/>
  </linearGradient>
  <linearGradient id="linearGradient2047" x1="-405" x2="-405" y1="236" y2="222" gradientTransform="translate(40,-1)" gradientUnits="userSpaceOnUse" xlink:href="#linearGradient15645"/>
  <linearGradient id="linearGradient2047-3" x1="-406" x2="-406" y1="236" y2="222" gradientTransform="translate(417.73603,-235.29441)" gradientUnits="userSpaceOnUse" xlink:href="#linearGradient15645"/>
  <linearGradient id="linearGradient15645">
   <stop style="stop-color:#1b1c1d;stop-opacity:1"  offset="0"/>
   <stop style="stop-color:#303437;stop-opacity:1"  offset="1"/>
  </linearGradient>
 </defs>
 <g id="radiobutton" transform="translate(375,-218)">
  <path  style="opacity:1;fill:#1d1f1f;fill-opacity:1" transform="translate(-375,218)" d="M 8 2 C 3.58764 2 0 5.58764 0 10 C 0 14.41236 3.58764 18 8 18 C 12.41236 18 16 14.41236 16 10 C 16 5.58764 12.41236 2 8 2 z M 8 3 A 7 7 0 0 1 15 10 A 7 7 0 0 1 8 17 A 7 7 0 0 1 1 10 A 7 7 0 0 1 8 3 z"/>
  <circle  cx="-367" cy="228" style="fill:url(#linearGradient2047);fill-opacity:1;opacity:0.37" r="7"/>
  <path  d="m -367,221 a 7,7 0 0 0 -7,7 7,7 0 0 0 0.0234,0.54102 A 7,7 0 0 1 -367,222 a 7,7 0 0 1 6.97656,6.45898 A 7,7 0 0 0 -360,228 a 7,7 0 0 0 -7,-7 z" style="opacity:0.05;fill:#ffffff"/>
  <path style="opacity:0.2"  d="M -360.02344,227.45898 A 7,7 0 0 1 -367,234 7,7 0 0 1 -373.97656,227.54102 7,7 0 0 0 -374,228 a 7,7 0 0 0 7,7 7,7 0 0 0 7,-7 7,7 0 0 0 -0.0234,-0.54102 z"/>
  <circle  cx="-367" cy="228" r="3" style="fill:#dfdfdf;fill-opacity:1"/>
 </g>
 <g id="checkbox">
  <path style="opacity:0.001"  d="M 21.6,0 C 19.6056,0 18,1.6056 18,3.6 v 10.8 c 0,1.9944 1.6056,3.6 3.6,3.6 H 32.4 C 34.3944,18 36,16.3944 36,14.4 V 3.6 C 36,1.6056 34.3944,0 32.4,0 Z"/>
  <path  style="opacity:1;fill:#1d1f1f;fill-opacity:1" d="M 23.570312 1 C 21.037978 1 19 3.0379784 19 5.5703125 L 19 12.429688 C 19 14.962022 21.037978 17 23.570312 17 L 30.429688 17 C 32.962022 17 35 14.962022 35 12.429688 L 35 5.5703125 C 35 3.0379784 32.962022 1 30.429688 1 L 23.570312 1 z M 24 2 L 30 2 C 32.216 2 34 3.784 34 6 L 34 12 C 34 14.216 32.216 16 30 16 L 24 16 C 21.784 16 20 14.216 20 12 L 20 6 C 20 3.784 21.784 2 24 2 z"/>
  <rect  width="14" height="14" x="20" y="2" rx="4" style="fill:url(#linearGradient2443);fill-opacity:1;opacity:0.37" ry="4"/>
  <path  style="fill:#ffffff;opacity:0.05" d="M 24 2 C 21.784 2 20 3.784 20 6 L 20 7 C 20 4.784 21.784 3 24 3 L 30 3 C 32.216 3 34 4.784 34 7 L 34 6 C 34 3.784 32.216 2 30 2 L 24 2 z"/>
  <path  style="opacity:0.2" d="M 20 11 L 20 12 C 20 14.216 21.784 16 24 16 L 30 16 C 32.216 16 34 14.216 34 12 L 34 11 C 34 13.216 32.216 15 30 15 L 24 15 C 21.784 15 20 13.216 20 11 z"/>
  <path  style="fill:#dfdfdf;fill-opacity:1" d="M 33.611328 4.2988281 L 27.242188 9.8222656 L 24.525391 6.7402344 L 22.275391 8.7226562 L 26.958984 14.039062 L 34 7.9355469 L 34 6 C 34 5.3887242 33.854444 4.8159832 33.611328 4.2988281 z"/>
 </g>
</svg>
