<svg xmlns="http://www.w3.org/2000/svg"  width="128" height="128" version="1">
 <rect id="hint-stretch-borders" style="fill:#ff0000" width="5.221" height="5.403" x="-10" y="0"/>
 <g id="north-center" transform="translate(-152,-4)">
  <path style="fill:#232526"  d="m 264,112 v 5 h 5 v -5 z"/>
 </g>
 <g id="north-top" transform="translate(-152,-5)">
  <path style="fill:#232526"  transform="translate(152,5)" d="m 112,103 v 1 1 2 h 5 v -2 -1 -1 z"/>
  <path style="fill:#1d1f1f"  d="m 264,107 v 1 h 5 v -1 z"/>
 </g>
 <g id="north-bottom" transform="translate(-152,-3)">
  <path style="fill:#232526"  transform="translate(152,3)" d="m 112,114 v 3 1 h 5 v -1 -3 z"/>
  <path style="fill:#1d1f1f"  d="m 264,121 v 1 h 5 v -1 z"/>
 </g>
 <g id="south-center" transform="translate(-165,-4)">
  <path style="fill:#232526"  d="m 264,112 v 5 h 5 v -5 z"/>
 </g>
 <g id="south-top" transform="translate(-165,-5)">
  <path style="fill:#232526"  transform="translate(165,5)" d="m 99,103 v 1 1 2 h 5 v -2 -1 -1 z"/>
  <path style="fill:#1d1f1f"  d="m 264,107 v 1 h 5 v -1 z"/>
 </g>
 <g id="south-bottom" transform="translate(-165,-3)">
  <path style="fill:#232526"  transform="translate(165,3)" d="m 99,114 v 3 1 h 5 v -1 -3 z"/>
  <path style="fill:#1d1f1f"  d="m 264,121 v 1 h 5 v -1 z"/>
 </g>
 <g id="east-center" transform="rotate(-90,159,175)">
  <path style="fill:#232526"  d="m 264,112 v 5 h 5 v -5 z"/>
 </g>
 <g id="east-left" transform="rotate(-90,158.5,175.5)">
  <path style="fill:#232526"  transform="rotate(90,158.5,175.5)" d="m 91,65 v 5 h 1 3 v -5 h -3 z"/>
  <path style="fill:#1d1f1f"  d="m 264,107 v 1 h 5 v -1 z"/>
 </g>
 <g id="east-right" transform="rotate(-90,159.5,174.5)">
  <path style="fill:#232526"  transform="rotate(90,159.5,174.5)" d="m 102,65 v 5 h 3 1 v -5 h -1 z"/>
  <path style="fill:#1d1f1f"  d="m 264,121 v 1 h 5 v -1 z"/>
 </g>
 <g id="west-center" transform="rotate(-90,165.5,181.5)">
  <path style="fill:#232526"  d="m 264,112 v 5 h 5 v -5 z"/>
 </g>
 <g id="west-left" transform="rotate(-90,165,182)">
  <path style="fill:#232526"  transform="rotate(90,165,182)" d="m 91,78 v 5 h 1 3 v -5 h -3 z"/>
  <path style="fill:#1d1f1f"  d="m 264,107 v 1 h 5 v -1 z"/>
 </g>
 <g id="west-right" transform="rotate(-90,166,181)">
  <path style="fill:#232526"  transform="rotate(90,166,181)" d="m 102,78 v 5 h 3 1 v -5 h -1 z"/>
  <path style="fill:#1d1f1f"  d="m 264,121 v 1 h 5 v -1 z"/>
 </g>
 <g id="vertical-centerindicator" transform="translate(1,15)">
  <rect id="rect4223-8" style="fill:#1d1f1f" width="42" height="1" x="11" y="32"/>
  <rect id="rect4209-5" style="fill:#232526" width="42" height="1" x="11" y="33"/>
  <rect id="rect2706-6" style="fill:#232526" width="42" height="1" x="11" y="31"/>
 </g>
 <g id="horizontal-centerindicator" transform="translate(-4,17)">
  <rect id="rect4227-2" style="fill:#1d1f1f" width="42" height="1" x="-31" y="8" transform="rotate(-90)"/>
  <rect id="rect4229-5" style="fill:#232526" width="42" height="1" x="-31" y="9" transform="rotate(-90)"/>
  <rect id="rect2721-2" style="fill:#232526" width="42" height="1" x="-31" y="7" transform="rotate(-90)"/>
 </g>
 <g id="west-minslider" transform="translate(-56,40)">
  <rect style="opacity:0.001"  width="16" height="16" x="56" y="56"/>
  <path style="fill:#dfdfdf"  d="m 60.011719,57 c -1.34883,-0.01913 -1.34883,2.019125 0,2 h 8.976562 c 1.34883,0.01913 1.34883,-2.019125 0,-2 z m 4.425781,3.001953 c -0.08048,0.0045 -0.16031,0.01693 -0.238281,0.03711 -0.313789,0.07967 -0.581924,0.280242 -0.744141,0.556641 l -1.646484,2.810547 -1.646485,2.808594 C 59.696892,67.008583 60.278754,68.000787 61.208984,68 H 63 v 1.478516 c -0.02869,2.028484 3.028688,2.028484 3,0 V 68 l 1.792969,-0.002 c 0.928706,-7.9e-5 1.509806,-0.9899 1.046875,-1.783203 L 67.191406,63.40625 65.544922,60.595703 C 65.31823,60.208575 64.89051,59.979251 64.4375,60.001953 Z"/>
 </g>
 <g id="north-offsetslider" transform="translate(16.969543,56.253807)">
  <rect style="opacity:0.001"  width="16" height="16" x="-16.97" y="55.75"/>
  <path style="fill:#dfdfdf"  d="m -9.0534411,57.748358 a 1.6102901,1.6362728 0 0 0 -0.317796,0.05109 1.6102901,1.6362728 0 0 0 -0.9916079,0.766436 l -2.196421,3.862835 -2.194409,3.862835 a 1.6102901,1.6362728 0 0 0 1.395894,2.454638 h 4.3888189 l 4.390828,-0.002 a 1.6102901,1.6362728 0 0 0 1.393883,-2.452594 l -2.19642,-3.862836 -2.19441,-3.862835 a 1.6102901,1.6362728 0 0 0 -1.47836,-0.817532 z"/>
 </g>
 <g id="south-offsetslider" transform="matrix(1,0,0,-1,32.969543,183.74619)">
  <rect style="opacity:0.001"  width="16" height="16" x="-16.97" y="55.75"/>
  <path style="fill:#dfdfdf"  d="m -9.0534411,57.748358 a 1.6102901,1.6362728 0 0 0 -0.317796,0.05109 1.6102901,1.6362728 0 0 0 -0.9916079,0.766436 l -2.196421,3.862835 -2.194409,3.862835 a 1.6102901,1.6362728 0 0 0 1.395894,2.454638 h 4.3888189 l 4.390828,-0.002 a 1.6102901,1.6362728 0 0 0 1.393883,-2.452594 l -2.19642,-3.862836 -2.19441,-3.862835 a 1.6102901,1.6362728 0 0 0 -1.47836,-0.817532 z"/>
 </g>
 <g id="east-offsetslider" transform="matrix(0,-1,-1,0,103.74619,111.03045)">
  <rect style="opacity:0.001"  width="16" height="16" x="-16.97" y="55.75"/>
  <path style="fill:#dfdfdf"  d="m -9.0534411,57.748358 a 1.6102901,1.6362728 0 0 0 -0.317796,0.05109 1.6102901,1.6362728 0 0 0 -0.9916079,0.766436 l -2.196421,3.862835 -2.194409,3.862835 a 1.6102901,1.6362728 0 0 0 1.395894,2.454638 h 4.3888189 l 4.390828,-0.002 a 1.6102901,1.6362728 0 0 0 1.393883,-2.452594 l -2.19642,-3.862836 -2.19441,-3.862835 a 1.6102901,1.6362728 0 0 0 -1.47836,-0.817532 z"/>
 </g>
 <g id="west-offsetslider" transform="rotate(-90,51.642127,59.388323)">
  <rect style="opacity:0.001"  width="16" height="16" x="-16.97" y="55.75"/>
  <path style="fill:#dfdfdf"  d="m -9.0534411,57.748358 a 1.6102901,1.6362728 0 0 0 -0.317796,0.05109 1.6102901,1.6362728 0 0 0 -0.9916079,0.766436 l -2.196421,3.862835 -2.194409,3.862835 a 1.6102901,1.6362728 0 0 0 1.395894,2.454638 h 4.3888189 l 4.390828,-0.002 a 1.6102901,1.6362728 0 0 0 1.393883,-2.452594 l -2.19642,-3.862836 -2.19441,-3.862835 a 1.6102901,1.6362728 0 0 0 -1.47836,-0.817532 z"/>
 </g>
 <g id="west-maxslider" transform="matrix(1,0,0,-1,-40,168)">
  <rect style="opacity:0.001"  width="16" height="16" x="56" y="56"/>
  <path style="fill:#dfdfdf"  d="m 60.011719,57 c -1.34883,-0.01913 -1.34883,2.019125 0,2 h 8.976562 c 1.34883,0.01913 1.34883,-2.019125 0,-2 z m 4.425781,3.001953 c -0.08048,0.0045 -0.16031,0.01693 -0.238281,0.03711 -0.313789,0.07967 -0.581924,0.280242 -0.744141,0.556641 l -1.646484,2.810547 -1.646485,2.808594 C 59.696892,67.008583 60.278754,68.000787 61.208984,68 H 63 v 1.478516 c -0.02869,2.028484 3.028688,2.028484 3,0 V 68 l 1.792969,-0.002 c 0.928706,-7.9e-5 1.509806,-0.9899 1.046875,-1.783203 L 67.191406,63.40625 65.544922,60.595703 C 65.31823,60.208575 64.89051,59.979251 64.4375,60.001953 Z"/>
 </g>
 <g id="south-maxslider" transform="rotate(90,32,72)">
  <rect style="opacity:0.001"  width="16" height="16" x="56" y="56"/>
  <path style="fill:#dfdfdf"  d="m 60.011719,57 c -1.34883,-0.01913 -1.34883,2.019125 0,2 h 8.976562 c 1.34883,0.01913 1.34883,-2.019125 0,-2 z m 4.425781,3.001953 c -0.08048,0.0045 -0.16031,0.01693 -0.238281,0.03711 -0.313789,0.07967 -0.581924,0.280242 -0.744141,0.556641 l -1.646484,2.810547 -1.646485,2.808594 C 59.696892,67.008583 60.278754,68.000787 61.208984,68 H 63 v 1.478516 c -0.02869,2.028484 3.028688,2.028484 3,0 V 68 l 1.792969,-0.002 c 0.928706,-7.9e-5 1.509806,-0.9899 1.046875,-1.783203 L 67.191406,63.40625 65.544922,60.595703 C 65.31823,60.208575 64.89051,59.979251 64.4375,60.001953 Z"/>
 </g>
 <g id="south-minslider" transform="matrix(0,1,1,0,-8,40)">
  <rect style="opacity:0.001"  width="16" height="16" x="56" y="56"/>
  <path style="fill:#dfdfdf"  d="m 60.011719,57 c -1.34883,-0.01913 -1.34883,2.019125 0,2 h 8.976562 c 1.34883,0.01913 1.34883,-2.019125 0,-2 z m 4.425781,3.001953 c -0.08048,0.0045 -0.16031,0.01693 -0.238281,0.03711 -0.313789,0.07967 -0.581924,0.280242 -0.744141,0.556641 l -1.646484,2.810547 -1.646485,2.808594 C 59.696892,67.008583 60.278754,68.000787 61.208984,68 H 63 v 1.478516 c -0.02869,2.028484 3.028688,2.028484 3,0 V 68 l 1.792969,-0.002 c 0.928706,-7.9e-5 1.509806,-0.9899 1.046875,-1.783203 L 67.191406,63.40625 65.544922,60.595703 C 65.31823,60.208575 64.89051,59.979251 64.4375,60.001953 Z"/>
 </g>
 <g id="east-minslider" transform="translate(-56,24)">
  <rect style="opacity:0.001"  width="16" height="16" x="56" y="56"/>
  <path  style="fill:#dfdfdf" transform="translate(56,-24)" d="M 4.0117188 81 A 0.99751689 1.0001 0 1 0 4.0117188 83 L 12.988281 83 A 0.99751689 1.0001 0 1 0 12.988281 81 L 4.0117188 81 z M 8.4648438 84 A 1.2077173 1.190017 0 0 0 8.4375 84.001953 A 1.2077173 1.190017 0 0 0 8.1992188 84.039062 A 1.2077173 1.190017 0 0 0 7.4550781 84.595703 L 5.8085938 87.40625 L 4.1621094 90.214844 A 1.2077173 1.190017 0 0 0 5.2089844 92 L 7 92 L 7 93.478516 A 1.50015 1.50015 0 1 0 10 93.478516 L 10 92 L 11.792969 91.998047 A 1.2077173 1.190017 0 0 0 12.839844 90.214844 L 11.191406 87.40625 L 9.5449219 84.595703 A 1.2077173 1.190017 0 0 0 8.4648438 84 z"/>
 </g>
 <g id="east-maxslider" transform="matrix(1,0,0,-1,-40,152)">
  <rect style="opacity:0.001"  width="16" height="16" x="56" y="56"/>
  <path style="fill:#dfdfdf"  d="m 60.011719,57 c -1.34883,-0.01913 -1.34883,2.019125 0,2 h 8.976562 c 1.34883,0.01913 1.34883,-2.019125 0,-2 z m 4.425781,3.001953 c -0.08048,0.0045 -0.16031,0.01693 -0.238281,0.03711 -0.313789,0.07967 -0.581924,0.280242 -0.744141,0.556641 l -1.646484,2.810547 -1.646485,2.808594 C 59.696892,67.008583 60.278754,68.000787 61.208984,68 H 63 v 1.478516 c -0.02869,2.028484 3.028688,2.028484 3,0 V 68 l 1.792969,-0.002 c 0.928706,-7.9e-5 1.509806,-0.9899 1.046875,-1.783203 L 67.191406,63.40625 65.544922,60.595703 C 65.31823,60.208575 64.89051,59.979251 64.4375,60.001953 Z"/>
 </g>
 <g id="north-maxslider" transform="rotate(90,40,64)">
  <rect style="opacity:0.001"  width="16" height="16" x="56" y="56"/>
  <path style="fill:#dfdfdf"  d="m 60.011719,57 c -1.34883,-0.01913 -1.34883,2.019125 0,2 h 8.976562 c 1.34883,0.01913 1.34883,-2.019125 0,-2 z m 4.425781,3.001953 c -0.08048,0.0045 -0.16031,0.01693 -0.238281,0.03711 -0.313789,0.07967 -0.581924,0.280242 -0.744141,0.556641 l -1.646484,2.810547 -1.646485,2.808594 C 59.696892,67.008583 60.278754,68.000787 61.208984,68 H 63 v 1.478516 c -0.02869,2.028484 3.028688,2.028484 3,0 V 68 l 1.792969,-0.002 c 0.928706,-7.9e-5 1.509806,-0.9899 1.046875,-1.783203 L 67.191406,63.40625 65.544922,60.595703 C 65.31823,60.208575 64.89051,59.979251 64.4375,60.001953 Z"/>
 </g>
 <g id="north-minslider" transform="matrix(0,1,1,0,-8,24)">
  <rect style="opacity:0.001"  width="16" height="16" x="56" y="56"/>
  <path style="fill:#dfdfdf"  d="m 60.011719,57 c -1.34883,-0.01913 -1.34883,2.019125 0,2 h 8.976562 c 1.34883,0.01913 1.34883,-2.019125 0,-2 z m 4.425781,3.001953 c -0.08048,0.0045 -0.16031,0.01693 -0.238281,0.03711 -0.313789,0.07967 -0.581924,0.280242 -0.744141,0.556641 l -1.646484,2.810547 -1.646485,2.808594 C 59.696892,67.008583 60.278754,68.000787 61.208984,68 H 63 v 1.478516 c -0.02869,2.028484 3.028688,2.028484 3,0 V 68 l 1.792969,-0.002 c 0.928706,-7.9e-5 1.509806,-0.9899 1.046875,-1.783203 L 67.191406,63.40625 65.544922,60.595703 C 65.31823,60.208575 64.89051,59.979251 64.4375,60.001953 Z"/>
 </g>
</svg>
