<svg xmlns="http://www.w3.org/2000/svg" xmlns:xlink="http://www.w3.org/1999/xlink" width="66" height="66" version="1.1">
 <defs>
  <linearGradient id="linearGradient1002">
   <stop style="stop-color:#ffffff" offset="0"/>
   <stop style="stop-color:#dcdcdc" offset="1"/>
  </linearGradient>
  <linearGradient id="linearGradient1903" x1="28" x2="28" y1="24" y2="42" gradientTransform="translate(-22,22)" gradientUnits="userSpaceOnUse" xlink:href="#linearGradient1002"/>
  <linearGradient id="linearGradient3567" x1="28" x2="28" y1="24" y2="42" gradientTransform="translate(-22)" gradientUnits="userSpaceOnUse" xlink:href="#linearGradient1002"/>
  <linearGradient id="linearGradient3597" x1="28" x2="28" y1="24" y2="42" gradientTransform="translate(-22,-22)" gradientUnits="userSpaceOnUse" xlink:href="#linearGradient1002"/>
 </defs>
 <g id="open-hover">
  <rect style="opacity:0.00100002" width="22" height="22" x="22" y="44"/>
  <path style="opacity:0.5;fill:#ffffff" d="m 27,46 h 12 c 1.662,0 3,1.338 3,3 v 12 c 0,1.662 -1.338,3 -3,3 H 27 c -1.662,0 -3,-1.338 -3,-3 V 49 c 0,-1.662 1.338,-3 3,-3 z"/>
  <path style="opacity:0.18" d="m 27,45 c -2.198701,0 -4,1.801299 -4,4 v 12 c 0,2.198701 1.801299,4 4,4 h 12 c 2.198701,0 4,-1.801299 4,-4 V 49 c 0,-2.198701 -1.801299,-4 -4,-4 z m 0,1 h 12 c 1.662,0 3,1.338 3,3 v 12 c 0,1.662 -1.338,3 -3,3 H 27 c -1.662,0 -3,-1.338 -3,-3 V 49 c 0,-1.662 1.338,-3 3,-3 z"/>
  <path style="opacity:0.6;fill:#ffffff" d="m 27,46 c -1.662,0 -3,1.338 -3,3 v 1 c 0,-1.662 1.338,-3 3,-3 h 12 c 1.662,0 3,1.338 3,3 v -1 c 0,-1.662 -1.338,-3 -3,-3 z"/>
  <path style="fill:#3c3c3c" d="m 33,50 -5,5 h 3 V 58.333984 60 h 2 2 v -1.482422 c 0.005,-0.06046 0.006,-0.121386 0,-0.183594 V 55 h 3 z"/>
 </g>
 <g id="open-normal">
  <rect style="opacity:0.00100002" width="22" height="22" x="0" y="44"/>
  <path style="opacity:0.37;fill:url(#linearGradient1903)" d="m 5,46 h 12 c 1.662,0 3,1.338 3,3 v 12 c 0,1.662 -1.338,3 -3,3 H 5 C 3.338,64 2,62.662 2,61 V 49 c 0,-1.662 1.338,-3 3,-3 z"/>
  <path style="opacity:0.18" d="m 5,45 c -2.198701,0 -4,1.801299 -4,4 v 12 c 0,2.198701 1.801299,4 4,4 h 12 c 2.198701,0 4,-1.801299 4,-4 V 49 c 0,-2.198701 -1.801299,-4 -4,-4 z m 0,1 h 12 c 1.662,0 3,1.338 3,3 v 12 c 0,1.662 -1.338,3 -3,3 H 5 C 3.338,64 2,62.662 2,61 V 49 c 0,-1.662 1.338,-3 3,-3 z"/>
  <path style="opacity:0.6;fill:#ffffff" d="m 5,46 c -1.662,0 -3,1.338 -3,3 v 1 c 0,-1.662 1.338,-3 3,-3 h 12 c 1.662,0 3,1.338 3,3 v -1 c 0,-1.662 -1.338,-3 -3,-3 z"/>
  <path style="fill:#3c3c3c" d="M 11,50 6,55 H 9 V 58.333984 60 h 2 2 v -1.482422 c 0.005,-0.06046 0.006,-0.121386 0,-0.183594 V 55 h 3 z"/>
 </g>
 <g id="open-pressed">
  <rect style="opacity:0.00100002" width="22" height="22" x="44" y="44"/>
  <path style="opacity:0.13" d="m 49,46 h 12 c 1.662,0 3,1.338 3,3 v 12 c 0,1.662 -1.338,3 -3,3 H 49 c -1.662,0 -3,-1.338 -3,-3 V 49 c 0,-1.662 1.338,-3 3,-3 z"/>
  <path style="opacity:0.29" d="m 49,45 c -2.198701,0 -4,1.801299 -4,4 v 12 c 0,2.198701 1.801299,4 4,4 h 12 c 2.198701,0 4,-1.801299 4,-4 V 49 c 0,-2.198701 -1.801299,-4 -4,-4 z m 0,1 h 12 c 1.662,0 3,1.338 3,3 v 12 c 0,1.662 -1.338,3 -3,3 H 49 c -1.662,0 -3,-1.338 -3,-3 V 49 c 0,-1.662 1.338,-3 3,-3 z"/>
  <path style="fill:#3c3c3c" d="m 55,50 -5,5 h 3 V 58.333984 60 h 2 2 v -1.482422 c 0.005,-0.06046 0.006,-0.121386 0,-0.183594 V 55 h 3 z"/>
 </g>
 <g id="add-normal">
  <rect style="opacity:0.00100002" width="22" height="22" x="0" y="0"/>
  <path style="opacity:0.37;fill:url(#linearGradient3597)" d="m 5,2 h 12 c 1.662,0 3,1.338 3,3 v 12 c 0,1.662 -1.338,3 -3,3 H 5 C 3.338,20 2,18.662 2,17 V 5 C 2,3.338 3.338,2 5,2 Z"/>
  <path style="opacity:0.18" d="M 5,1 C 2.801299,1 1,2.801299 1,5 v 12 c 0,2.198701 1.801299,4 4,4 h 12 c 2.198701,0 4,-1.801299 4,-4 V 5 C 21,2.801299 19.198701,1 17,1 Z m 0,1 h 12 c 1.662,0 3,1.338 3,3 v 12 c 0,1.662 -1.338,3 -3,3 H 5 C 3.338,20 2,18.662 2,17 V 5 C 2,3.338 3.338,2 5,2 Z"/>
  <path style="opacity:0.6;fill:#ffffff" d="M 5,2 C 3.338,2 2,3.338 2,5 V 6 C 2,4.338 3.338,3 5,3 h 12 c 1.662,0 3,1.338 3,3 V 5 C 20,3.338 18.662,2 17,2 Z"/>
  <path style="fill:#3c3c3c" d="m 10,6 v 4 H 6 v 2 h 4 v 4 h 2 v -4 h 4 V 10 H 12 V 6 Z"/>
 </g>
 <g id="remove-normal">
  <rect style="opacity:0.00100002" width="22" height="22" x="0" y="22"/>
  <path style="opacity:0.37;fill:url(#linearGradient3567)" d="m 5,24 h 12 c 1.662,0 3,1.338 3,3 v 12 c 0,1.662 -1.338,3 -3,3 H 5 C 3.338,42 2,40.662 2,39 V 27 c 0,-1.662 1.338,-3 3,-3 z"/>
  <path style="opacity:0.18" d="m 5,23 c -2.198701,0 -4,1.801299 -4,4 v 12 c 0,2.198701 1.801299,4 4,4 h 12 c 2.198701,0 4,-1.801299 4,-4 V 27 c 0,-2.198701 -1.801299,-4 -4,-4 z m 0,1 h 12 c 1.662,0 3,1.338 3,3 v 12 c 0,1.662 -1.338,3 -3,3 H 5 C 3.338,42 2,40.662 2,39 V 27 c 0,-1.662 1.338,-3 3,-3 z"/>
  <path style="opacity:0.6;fill:#ffffff" d="m 5,24 c -1.662,0 -3,1.338 -3,3 v 1 c 0,-1.662 1.338,-3 3,-3 h 12 c 1.662,0 3,1.338 3,3 v -1 c 0,-1.662 -1.338,-3 -3,-3 z"/>
  <path style="fill:#3c3c3c" d="m 6,32 v 2 h 10 v -2 z"/>
 </g>
 <g id="add-hover">
  <rect style="opacity:0.00100002" width="22" height="22" x="22" y="0"/>
  <path style="opacity:0.5;fill:#ffffff" d="m 27,2 h 12 c 1.662,0 3,1.338 3,3 v 12 c 0,1.662 -1.338,3 -3,3 H 27 c -1.662,0 -3,-1.338 -3,-3 V 5 c 0,-1.662 1.338,-3 3,-3 z"/>
  <path style="opacity:0.18" d="m 27,1 c -2.198701,0 -4,1.801299 -4,4 v 12 c 0,2.198701 1.801299,4 4,4 h 12 c 2.198701,0 4,-1.801299 4,-4 V 5 C 43,2.801299 41.198701,1 39,1 Z m 0,1 h 12 c 1.662,0 3,1.338 3,3 v 12 c 0,1.662 -1.338,3 -3,3 H 27 c -1.662,0 -3,-1.338 -3,-3 V 5 c 0,-1.662 1.338,-3 3,-3 z"/>
  <path style="opacity:0.6;fill:#ffffff" d="m 27,2 c -1.662,0 -3,1.338 -3,3 v 1 c 0,-1.662 1.338,-3 3,-3 h 12 c 1.662,0 3,1.338 3,3 V 5 C 42,3.338 40.662,2 39,2 Z"/>
  <path style="fill:#3c3c3c" d="m 32,6 v 4 h -4 v 2 h 4 v 4 h 2 v -4 h 4 V 10 H 34 V 6 Z"/>
 </g>
 <g id="add-pressed">
  <rect style="opacity:0.00100002" width="22" height="22" x="44" y="0"/>
  <path style="opacity:0.13" d="m 49,2 h 12 c 1.662,0 3,1.338 3,3 v 12 c 0,1.662 -1.338,3 -3,3 H 49 c -1.662,0 -3,-1.338 -3,-3 V 5 c 0,-1.662 1.338,-3 3,-3 z"/>
  <path style="opacity:0.29" d="m 49,1 c -2.198701,0 -4,1.801299 -4,4 v 12 c 0,2.198701 1.801299,4 4,4 h 12 c 2.198701,0 4,-1.801299 4,-4 V 5 C 65,2.801299 63.198701,1 61,1 Z m 0,1 h 12 c 1.662,0 3,1.338 3,3 v 12 c 0,1.662 -1.338,3 -3,3 H 49 c -1.662,0 -3,-1.338 -3,-3 V 5 c 0,-1.662 1.338,-3 3,-3 z"/>
  <path style="fill:#3c3c3c" d="m 54,6 v 4 h -4 v 2 h 4 v 4 h 2 v -4 h 4 V 10 H 56 V 6 Z"/>
 </g>
 <g id="remove-hover">
  <rect style="opacity:0.00100002" width="22" height="22" x="22" y="22"/>
  <path style="opacity:0.5;fill:#ffffff" d="m 27,24 h 12 c 1.662,0 3,1.338 3,3 v 12 c 0,1.662 -1.338,3 -3,3 H 27 c -1.662,0 -3,-1.338 -3,-3 V 27 c 0,-1.662 1.338,-3 3,-3 z"/>
  <path style="opacity:0.18" d="m 27,23 c -2.198701,0 -4,1.801299 -4,4 v 12 c 0,2.198701 1.801299,4 4,4 h 12 c 2.198701,0 4,-1.801299 4,-4 V 27 c 0,-2.198701 -1.801299,-4 -4,-4 z m 0,1 h 12 c 1.662,0 3,1.338 3,3 v 12 c 0,1.662 -1.338,3 -3,3 H 27 c -1.662,0 -3,-1.338 -3,-3 V 27 c 0,-1.662 1.338,-3 3,-3 z"/>
  <path style="opacity:0.6;fill:#ffffff" d="m 27,24 c -1.662,0 -3,1.338 -3,3 v 1 c 0,-1.662 1.338,-3 3,-3 h 12 c 1.662,0 3,1.338 3,3 v -1 c 0,-1.662 -1.338,-3 -3,-3 z"/>
  <path style="fill:#3c3c3c" d="m 28,32 v 2 h 10 v -2 z"/>
 </g>
 <g id="remove-pressed">
  <rect style="opacity:0.00100002" width="22" height="22" x="44" y="22"/>
  <path style="opacity:0.13" d="m 49,24 h 12 c 1.662,0 3,1.338 3,3 v 12 c 0,1.662 -1.338,3 -3,3 H 49 c -1.662,0 -3,-1.338 -3,-3 V 27 c 0,-1.662 1.338,-3 3,-3 z"/>
  <path style="opacity:0.29" d="m 49,23 c -2.198701,0 -4,1.801299 -4,4 v 12 c 0,2.198701 1.801299,4 4,4 h 12 c 2.198701,0 4,-1.801299 4,-4 V 27 c 0,-2.198701 -1.801299,-4 -4,-4 z m 0,1 h 12 c 1.662,0 3,1.338 3,3 v 12 c 0,1.662 -1.338,3 -3,3 H 49 c -1.662,0 -3,-1.338 -3,-3 V 27 c 0,-1.662 1.338,-3 3,-3 z"/>
  <path style="fill:#3c3c3c" d="m 50,32 v 2 h 10 v -2 z"/>
 </g>
</svg>
