<svg xmlns="http://www.w3.org/2000/svg" xmlns:xlink="http://www.w3.org/1999/xlink" id="svg32" width="64" height="16" version="1">
 <defs id="defs16">
  <linearGradient id="linearGradient2047" x1="-406" x2="-406" y1="236" y2="222" gradientTransform="translate(40,-1)" gradientUnits="userSpaceOnUse" xlink:href="#linearGradient1645"/>
  <linearGradient id="linearGradient1645">
   <stop style="stop-color:#dcdcdc;stop-opacity:1" id="stop1641" offset="0"/>
   <stop style="stop-color:#ffffff;stop-opacity:1" id="stop1643" offset="1"/>
  </linearGradient>
  <linearGradient id="linearGradient1859">
   <stop style="stop-color:#aaaaaa;stop-opacity:1" id="stop1855" offset="0"/>
   <stop style="stop-color:#b7b7b7;stop-opacity:1" id="stop1857" offset="1"/>
  </linearGradient>
  <linearGradient id="linearGradient928" x1="-366.094" x2="-366.094" y1="235" y2="221" gradientUnits="userSpaceOnUse" xlink:href="#linearGradient1859"/>
 </defs>
 <g id="normal" transform="translate(375,-220)">
  <path id="path2019" style="opacity:0.25" transform="translate(-375,218)" d="m 8,2 c -4.41236,0 -8,3.58764 -8,8 0,4.41236 3.58764,8 8,8 4.41236,0 8,-3.58764 8,-8 C 16,5.58764 12.41236,2 8,2 Z M 7.90625,3 A 7,7 0 0 1 8,3 7,7 0 0 1 15,10 7,7 0 0 1 8,17 7,7 0 0 1 1,10 7,7 0 0 1 7.90625,3 Z"/>
  <circle cx="-367" cy="228" style="opacity:0.37;fill:url(#linearGradient2047)" id="circle2021" r="7"/>
  <path id="path2023" d="m -367,221 a 7,7 0 0 0 -7,7 7,7 0 0 0 0.0234,0.54102 A 7,7 0 0 1 -367,222 a 7,7 0 0 1 6.97656,6.45898 A 7,7 0 0 0 -360,228 a 7,7 0 0 0 -7,-7 z" style="opacity:0.8;fill:#ffffff"/>
  <path style="opacity:0.2" id="path2025" d="M -360.02344,227.45898 A 7,7 0 0 1 -367,234 7,7 0 0 1 -373.97656,227.54102 7,7 0 0 0 -374,228 a 7,7 0 0 0 7,7 7,7 0 0 0 7,-7 7,7 0 0 0 -0.0234,-0.54102 z"/>
 </g>
 <g id="hover" transform="translate(391,-220)">
  <path id="path873" style="opacity:0.25" transform="translate(-375,218)" d="m 8,2 c -4.41236,0 -8,3.58764 -8,8 0,4.41236 3.58764,8 8,8 4.41236,0 8,-3.58764 8,-8 C 16,5.58764 12.41236,2 8,2 Z M 7.90625,3 A 7,7 0 0 1 8,3 7,7 0 0 1 15,10 7,7 0 0 1 8,17 7,7 0 0 1 1,10 7,7 0 0 1 7.90625,3 Z"/>
  <circle cx="-367" cy="228" style="opacity:0.37;fill:#ffffff" id="circle875" r="7"/>
  <path id="path877" d="m -367,221 a 7,7 0 0 0 -7,7 7,7 0 0 0 0.0234,0.54102 A 7,7 0 0 1 -367,222 a 7,7 0 0 1 6.97656,6.45898 A 7,7 0 0 0 -360,228 a 7,7 0 0 0 -7,-7 z" style="opacity:0.3;fill:#ffffff"/>
  <path style="opacity:0.1" id="path879" d="M -360.02344,227.45898 A 7,7 0 0 1 -367,234 7,7 0 0 1 -373.97656,227.54102 7,7 0 0 0 -374,228 a 7,7 0 0 0 7,7 7,7 0 0 0 7,-7 7,7 0 0 0 -0.0234,-0.54102 z"/>
 </g>
 <g id="focus" transform="translate(407,-220)">
  <path id="path885" style="opacity:0.25" transform="translate(-375,218)" d="m 8,2 c -4.41236,0 -8,3.58764 -8,8 0,4.41236 3.58764,8 8,8 4.41236,0 8,-3.58764 8,-8 C 16,5.58764 12.41236,2 8,2 Z M 7.90625,3 A 7,7 0 0 1 8,3 7,7 0 0 1 15,10 7,7 0 0 1 8,17 7,7 0 0 1 1,10 7,7 0 0 1 7.90625,3 Z"/>
  <circle cx="-367" cy="228" style="opacity:0.37;fill:#ffffff" id="circle887" r="7"/>
  <path id="path889" d="m -367,221 a 7,7 0 0 0 -7,7 7,7 0 0 0 0.0234,0.54102 A 7,7 0 0 1 -367,222 a 7,7 0 0 1 6.97656,6.45898 A 7,7 0 0 0 -360,228 a 7,7 0 0 0 -7,-7 z" style="opacity:0.3;fill:#ffffff"/>
  <path style="opacity:0.1" id="path891" d="M -360.02344,227.45898 A 7,7 0 0 1 -367,234 7,7 0 0 1 -373.97656,227.54102 7,7 0 0 0 -374,228 a 7,7 0 0 0 7,7 7,7 0 0 0 7,-7 7,7 0 0 0 -0.0234,-0.54102 z"/>
 </g>
 <g id="pressed" transform="translate(423,-220)">
  <path id="path895" style="opacity:0.25" transform="translate(-375,218)" d="m 8,2 c -4.41236,0 -8,3.58764 -8,8 0,4.41236 3.58764,8 8,8 4.41236,0 8,-3.58764 8,-8 C 16,5.58764 12.41236,2 8,2 Z M 7.90625,3 A 7,7 0 0 1 8,3 7,7 0 0 1 15,10 7,7 0 0 1 8,17 7,7 0 0 1 1,10 7,7 0 0 1 7.90625,3 Z"/>
  <circle cx="-367" cy="228" style="fill:url(#linearGradient928)" id="circle897" r="7"/>
  <path id="path899" d="m -367,221 a 7,7 0 0 0 -7,7 7,7 0 0 0 0.0234,0.54102 A 7,7 0 0 1 -367,222 a 7,7 0 0 1 6.97656,6.45898 A 7,7 0 0 0 -360,228 a 7,7 0 0 0 -7,-7 z" style="opacity:0.3;fill:#ffffff"/>
  <path style="opacity:0.1" id="path901" d="M -360.02344,227.45898 A 7,7 0 0 1 -367,234 7,7 0 0 1 -373.97656,227.54102 7,7 0 0 0 -374,228 a 7,7 0 0 0 7,7 7,7 0 0 0 7,-7 7,7 0 0 0 -0.0234,-0.54102 z"/>
 </g>
</svg>
