<svg xmlns="http://www.w3.org/2000/svg" xmlns:xlink="http://www.w3.org/1999/xlink" id="svg47" width="63" height="17" version="1.1">
 <defs id="defs51">
  <linearGradient id="linearGradient1012">
   <stop style="stop-color:#388de4;stop-opacity:1" id="stop1008" offset="0"/>
   <stop style="stop-color:#3c90e7;stop-opacity:1" id="stop1010" offset="1"/>
  </linearGradient>
  <linearGradient id="linearGradient3417" x1="276.001" x2="276.001" y1="193.667" y2="189" gradientTransform="matrix(-1.50015,0,0,1.7141377,443.04235,-320.97275)" gradientUnits="userSpaceOnUse" xlink:href="#linearGradient3308"/>
  <linearGradient id="linearGradient3308">
   <stop style="stop-color:#2b82db;stop-opacity:1" id="stop3304" offset="0"/>
   <stop style="stop-color:#499bf0;stop-opacity:1" id="stop3306" offset="1"/>
  </linearGradient>
  <linearGradient id="linearGradient3437" x1="277" x2="277" y1="193.667" y2="189.001" gradientTransform="matrix(1,0,0,1.1429063,0,-27.342815)" gradientUnits="userSpaceOnUse" xlink:href="#linearGradient3308"/>
  <linearGradient id="linearGradient3427" x1="277" x2="277" y1="189.001" y2="193.668" gradientTransform="matrix(1,0,0,1.1428024,0,-27.323208)" gradientUnits="userSpaceOnUse" xlink:href="#linearGradient3308"/>
  <linearGradient id="linearGradient3431" x1="276.333" x2="279.667" y1="191.001" y2="191.001" gradientTransform="translate(0,-0.3333891)" gradientUnits="userSpaceOnUse" xlink:href="#linearGradient1012"/>
  <linearGradient id="linearGradient3433" x1="276.332" x2="279.666" y1="194.334" y2="194.334" gradientTransform="translate(0,-0.3342356)" gradientUnits="userSpaceOnUse" xlink:href="#linearGradient1012"/>
  <linearGradient id="linearGradient3462" x1="276" x2="276" y1="189" y2="193.668" gradientTransform="matrix(1.50015,0,0,-1.7139819,-392.04108,334.94299)" gradientUnits="userSpaceOnUse" xlink:href="#linearGradient3308"/>
  <linearGradient id="linearGradient3464" x1="276.001" x2="276.001" y1="189" y2="193.668" gradientTransform="matrix(-1.50015,0,0,-1.7139819,443.04235,334.94299)" gradientUnits="userSpaceOnUse" xlink:href="#linearGradient3308"/>
  <linearGradient id="linearGradient1036" x1="277.667" x2="277.667" y1="194.667" y2="191.334" gradientTransform="matrix(1.4999999,0,0,1.5001499,-378.49996,-280.02953)" gradientUnits="userSpaceOnUse" xlink:href="#linearGradient1012"/>
  <linearGradient id="linearGradient1038" x1="276" x2="276" y1="193.667" y2="189" gradientTransform="matrix(1.50015,0,0,1.7141377,-392.04108,-320.97275)" gradientUnits="userSpaceOnUse" xlink:href="#linearGradient3308"/>
 </defs>
 <rect id="hint-tile-center" style="fill:#ff2a2a" width="3" height="3" x="0" y="7"/>
 <rect id="hint-bar-size" style="fill:#ff2a2a" width="10" height="10" x="8" y="0"/>
 <rect id="hint-stretch-borders" style="fill:#ff2a2a" width="1" height="1" x="24" y="9"/>
 <rect id="hint-bar-stretch" style="fill:#ff2a2a" width="1" height="10" x="28" y="0"/>
 <rect style="fill:url(#linearGradient1036)" id="bar-active-center" width="5" height="5" x="36" y="7"/>
 <g id="bar-active-topleft" transform="matrix(1.50015,0,0,1.499806,-378.54095,-279.96384)">
  <path id="rect3349" style="fill:#2d639c" transform="matrix(0.66660001,0,0,0.6667529,261.0012,186.6667)" d="M 19.800781,2 C 18.443841,1.9991002 18,2.8978601 18,3.7988281 V 5 7 h 5 V 2.0019531 L 21,2 Z"/>
  <path id="path3360" style="fill:url(#linearGradient1038)" transform="matrix(0.66660001,0,0,0.6667529,261.0012,186.6667)" d="M 21,3 C 19.483621,2.99833 19,2.9988 19,4.2851562 V 5 7 h 4 V 3.0019531 C 22.493159,3.0015782 21,3 21,3 Z"/>
 </g>
 <g id="bar-active-top" transform="matrix(1.4999999,0,0,1.50015,-378.49997,-280.02967)">
  <rect style="fill:#2d639c" id="rect3331" width="3.333" height="3.333" x="276.33" y="188"/>
  <rect id="rect3365" width="3.333" height="2.666" x="276.33" y="188.67" style="fill:url(#linearGradient3437)"/>
 </g>
 <g id="bar-active-bottom" transform="matrix(1.4999999,0,0,-1.50015,-378.49997,299.02973)">
  <rect id="rect3387" width="3.333" height="3.333" x="276.33" y="188" style="fill:#2d639c"/>
  <rect style="fill:url(#linearGradient3427)" id="rect3389" width="3.333" height="2.666" x="276.33" y="188.67"/>
 </g>
 <g id="bar-active-left" transform="matrix(0,-1.4999561,1.50015,0,-251.02975,426.48774)">
  <rect id="rect3399" width="3.333" height="3.333" x="276.33" y="188" style="fill:#2d639c"/>
  <path id="rect3401" style="fill:url(#linearGradient3431)" d="m 276.33334,188.66763 h 3.33334 v 2.6664 h -3.33334 z"/>
 </g>
 <g id="bar-active-right" transform="matrix(0,-1.5,-1.50015,0,328.02833,426.49849)">
  <rect style="fill:#2d639c" id="rect3405" width="3.333" height="3.333" x="276.33" y="188"/>
  <path id="rect3407" style="fill:url(#linearGradient3433)" d="m 276.33334,188.66679 h 3.33334 v 2.66725 h -3.33334 z"/>
 </g>
 <g id="bar-active-topright" transform="matrix(-1.50015,0,0,1.499806,455.54095,-279.96384)">
  <path id="path3441" style="fill:#2d639c" transform="matrix(-0.66660001,0,0,0.6667529,294.9978,186.6667)" d="M 30,2 28,2.00195 V 7 h 5 V 5 3.8007812 C 33.0009,2.4438412 32.10214,2 31.201172,2 Z"/>
  <path id="path3443" style="fill:url(#linearGradient3417)" transform="matrix(-0.66660001,0,0,0.6667529,294.9978,186.6667)" d="m 30,3 c 0,0 -1.267354,0.00113 -1.998047,0.00195 V 7 h 4 L 32,5 V 4.2851562 C 32,2.9987682 31.516379,2.9983 30,3 Z"/>
 </g>
 <g id="bar-active-bottomleft" transform="matrix(1.50015,0,0,-1.499806,-378.54095,298.96353)">
  <path id="path3449" style="fill:#2d639c" transform="matrix(0.66660001,0,0,-0.6667529,261.0012,196.00104)" d="m 18,7 v 2 1.201172 C 18,11.10214 18.443841,12.0009 19.800781,12 H 21 l 2,-0.002 V 7 Z"/>
  <path id="path3452" style="fill:url(#linearGradient3462)" transform="matrix(0.66660001,0,0,-0.6667529,261.0012,196.00104)" d="M 19,7 V 9 9.7148438 C 19,11.001232 19.483621,11.0017 21,11 c 0,0 1.238134,-0.0031 2,-0.0039 V 7 Z"/>
 </g>
 <g id="bar-active-bottomright" transform="matrix(-1.50015,0,0,-1.499806,455.54095,298.96353)">
  <path id="path3456" style="fill:#2d639c" transform="matrix(-0.66660001,0,0,-0.6667529,294.9978,196.00104)" d="m 28,7 v 4.998047 L 30,12 h 1.199219 C 32.556159,12.0009 33,11.10214 33,10.201172 V 9 7 Z"/>
  <path id="path3458" style="fill:url(#linearGradient3464)" transform="matrix(-0.66660001,0,0,-0.6667529,294.9978,196.00104)" d="m 28.001953,7 v 3.996094 C 28.752883,10.996949 30,11 30,11 c 1.516379,0.0017 2,0.0012 2,-1.2851562 V 9 l 0.002,-2 z"/>
 </g>
 <rect id="bar-inactive-center" width="5" height="5" x="53" y="7" style="opacity:0.13"/>
 <g id="bar-inactive-left" transform="matrix(0,-1.5,1.5000006,0,-234.00163,426.50003)">
  <path id="rect3486" style="opacity:0.37" transform="matrix(0,0.6666664,-0.66666667,0,281.00002,164.66769)" d="m 35,2 v 5 h 1 V 2 Z"/>
  <rect id="rect3488" width="3.333" height="2.667" x="276.33" y="188.67" style="opacity:0.13"/>
 </g>
 <g id="bar-inactive-right" transform="matrix(0,-1.5,-1.5000006,0,345.00116,426.50034)">
  <path id="rect3492" style="opacity:0.37" transform="matrix(0,-0.6666664,-0.66666667,0,281.00023,221.33402)" d="m 49,2 v 5 h 1 V 2 Z"/>
  <rect style="opacity:0.13" id="rect3494" width="3.333" height="2.667" x="276.33" y="188.67"/>
 </g>
 <g id="bar-inactive-topleft" transform="matrix(1.50015,0,0,1.499806,-361.54095,-279.96384)">
  <path id="path945" style="opacity:0.37" transform="matrix(0.66660001,0,0,0.6667529,249.669,190.00047)" d="M 36.800781,-3 C 35.443841,-3.0008998 35,-2.1021399 35,-1.2011719 V 0 2 h 1 V 0 -0.71484375 C 36,-2.0011999 36.483621,-2.00167 38,-2 c 0,0 1.493159,0.00158 2,0.00195 v -1 L 38,-3 Z"/>
  <path id="path947" style="opacity:0.13" transform="matrix(0.66660001,0,0,0.6667529,261.0012,186.6667)" d="M 21,3 C 19.483621,2.99833 19,2.9988 19,4.2851562 V 5 7 h 4 V 3.0019531 C 22.493159,3.0015782 21,3 21,3 Z"/>
  <path id="path993" style="opacity:0.08" transform="matrix(0.66660001,0,0,0.6667529,249.669,186.6667)" d="M 38,3 C 36.483621,2.99833 36,2.9988 36,4.2851562 V 5 5.2851562 C 36,3.9988026 36.483618,3.9985002 38,4 c 0,0 1.493159,0.00158 2,0.00195 v -1 C 39.493159,3.0015782 38,3 38,3 Z"/>
 </g>
 <g id="bar-inactive-top" transform="matrix(1.4999999,0,0,1.50015,-361.49997,-280.02967)">
  <path id="rect951" style="opacity:0.37" transform="matrix(0.66666671,0,0,0.66660001,249.66666,190.00078)" d="m 40,-3 v 1 h 5 v -1 z"/>
  <rect id="rect953" width="3.333" height="2.666" x="276.33" y="188.67" style="opacity:0.13"/>
  <path id="rect995" style="opacity:0.08" transform="matrix(0.66666671,0,0,0.66660001,249.66666,186.66778)" d="m 40,3 v 1 h 5 V 3 Z"/>
 </g>
 <g id="bar-inactive-bottom" transform="matrix(1.4999999,0,0,-1.50015,-361.49997,299.02973)">
  <path id="rect957" style="opacity:0.37" transform="matrix(0.66666671,0,0,-0.66660001,249.66666,196.00022)" d="m 40,11 v 1 h 5 v -1 z"/>
  <rect style="opacity:0.13" id="rect959" width="3.333" height="2.666" x="276.33" y="188.67"/>
 </g>
 <g id="bar-inactive-topright" transform="matrix(-1.50015,0,0,1.499806,472.54095,-279.96384)">
  <path id="path963" style="opacity:0.37" transform="matrix(-0.66660001,0,0,0.6667529,306.33,190.00047)" d="m 47,-3 -2,0.00195 V 2 h 0.002 V -1.9980469 C 45.732646,-1.9988669 47,-2 47,-2 c 1.516379,-0.0017 2,-0.00123 2,1.28515625 V 0 l 0.002,2 H 50 V 0 -1.1992188 C 50.0009,-2.5561587 49.10214,-3 48.201172,-3 Z"/>
  <path id="path965" style="opacity:0.13" transform="matrix(-0.66660001,0,0,0.6667529,294.9978,186.6667)" d="m 30,3 c 0,0 -1.267354,0.00113 -1.998047,0.00195 V 7 h 4 L 32,5 V 4.2851562 C 32,2.9987682 31.516379,2.9983 30,3 Z"/>
  <path id="path997" style="opacity:0.08" transform="matrix(-0.66660001,0,0,0.6667529,306.33,186.6667)" d="m 47,3 c 0,0 -1.267354,0.00113 -1.998047,0.00195 v 1 C 45.732646,4.0015782 47,4 47,4 48.516382,3.99831 49,3.99877 49,5.2851562 V 5 4.2851562 C 49,2.9987683 48.516379,2.9983 47,3 Z m 2,3 v 1 h 0.002 z"/>
 </g>
 <g id="bar-inactive-bottomleft" transform="matrix(1.50015,0,0,-1.499806,-361.54095,298.96353)">
  <path id="path969" style="opacity:0.37" transform="matrix(0.66660001,0,0,-0.6667529,249.669,196.00104)" d="m 35,7 v 2 1.201172 C 35,11.10214 35.443841,12.0009 36.800781,12 H 38 l 2,-0.002 V 10.996094 C 39.238134,10.996894 38,11 38,11 36.483621,11.0017 36,11.0012 36,9.7148438 V 9 7 Z"/>
  <path id="path971" style="opacity:0.13" transform="matrix(0.66660001,0,0,-0.6667529,261.0012,196.00104)" d="M 19,7 V 9 9.7148438 C 19,11.001232 19.483621,11.0017 21,11 c 0,0 1.238134,-0.0031 2,-0.0039 V 7 Z"/>
 </g>
 <g id="bar-inactive-bottomright" transform="matrix(-1.50015,0,0,-1.499806,472.54095,298.96353)">
  <path id="path975" style="opacity:0.37" transform="matrix(-0.66660001,0,0,-0.6667529,306.33,196.00104)" d="m 45,7 v 4.998047 L 47,12 h 1.199219 C 49.556159,12.0009 50,11.10214 50,10.201172 V 9 7 H 49.001953 L 49,9 V 9.7148438 C 49,11.0012 48.516379,11.0017 47,11 47,11 45.752883,10.9969 45.001953,10.9961 V 7 Z"/>
  <path id="path977" style="opacity:0.13" transform="matrix(-0.66660001,0,0,-0.6667529,294.9978,196.00104)" d="m 28.001953,7 v 3.996094 C 28.752883,10.996949 30,11 30,11 c 1.516379,0.0017 2,0.0012 2,-1.2851562 V 9 l 0.002,-2 z"/>
 </g>
</svg>
