<svg xmlns="http://www.w3.org/2000/svg" xmlns:xlink="http://www.w3.org/1999/xlink" id="svg32" width="36" height="18" version="1">
 <defs id="defs16">
  <linearGradient id="linearGradient2443" x1="273" x2="273" y1="201" y2="214" gradientTransform="matrix(1,0,0,1.0769231,-253.00001,-214.46155)" gradientUnits="userSpaceOnUse" xlink:href="#linearGradient3181"/>
  <linearGradient id="linearGradient3181">
   <stop id="stop3177" style="stop-color:#eaeaea;stop-opacity:1" offset="0"/>
   <stop id="stop3179" style="stop-color:#dadada;stop-opacity:1" offset="1"/>
  </linearGradient>
  <linearGradient id="linearGradient2047" x1="-407" x2="-407" y1="222" y2="236" gradientTransform="translate(40,-1)" gradientUnits="userSpaceOnUse" xlink:href="#linearGradient3181"/>
 </defs>
 <g id="radiobutton" transform="translate(375,-218)">
  <path id="path2019" d="m -367,220 c -4.41236,0 -8,3.58764 -8,8 0,4.41236 3.58764,8 8,8 4.41236,0 8,-3.58764 8,-8 0,-4.41236 -3.58764,-8 -8,-8 z" style="opacity:0.25"/>
  <circle id="circle2021" cx="-367" cy="228" r="7" style="fill:url(#linearGradient2047)"/>
  <path id="path2023" d="m -367,221 a 7,7 0 0 0 -7,7 7,7 0 0 0 0.0234,0.54102 A 7,7 0 0 1 -367,222 a 7,7 0 0 1 6.97656,6.45898 A 7,7 0 0 0 -360,228 a 7,7 0 0 0 -7,-7 z" style="opacity:0.8;fill:#ffffff"/>
  <path style="opacity:0.2" id="path2025" d="M -360.02344,227.45898 A 7,7 0 0 1 -367,234 7,7 0 0 1 -373.97656,227.54102 7,7 0 0 0 -374,228 a 7,7 0 0 0 7,7 7,7 0 0 0 7,-7 7,7 0 0 0 -0.0234,-0.54102 z"/>
  <circle id="path2094" cx="-367" cy="228" r="3" style="fill:#3c3c3c"/>
 </g>
 <g id="checkbox">
  <path style="opacity:0.001" id="path851" d="M 21.6,0 C 19.6056,0 18,1.6056 18,3.6 v 10.8 c 0,1.9944 1.6056,3.6 3.6,3.6 H 32.4 C 34.3944,18 36,16.3944 36,14.4 V 3.6 C 36,1.6056 34.3944,0 32.4,0 Z"/>
  <rect id="rect858" width="16" height="16" x="19" y="1" rx="4.571" style="opacity:0.25" ry="4.571"/>
  <rect id="rect2417" width="14" height="14" x="20" y="2" rx="4" style="fill:url(#linearGradient2443)" ry="4"/>
  <path id="path2457" style="fill:#3c3c3c" d="M 33.611328 4.2988281 L 27.242188 9.8222656 L 24.525391 6.7402344 L 22.275391 8.7226562 L 26.958984 14.039062 L 34 7.9355469 L 34 6 C 34 5.3887242 33.854444 4.8159832 33.611328 4.2988281 z"/>
  <path id="rect871" style="fill:#ffffff;opacity:0.8" d="M 24 2 C 21.784 2 20 3.784 20 6 L 20 7 C 20 4.784 21.784 3 24 3 L 30 3 C 32.216 3 34 4.784 34 7 L 34 6 C 34 3.784 32.216 2 30 2 L 24 2 z"/>
  <path id="rect876" style="opacity:0.2" d="M 20 11 L 20 12 C 20 14.216 21.784 16 24 16 L 30 16 C 32.216 16 34 14.216 34 12 L 34 11 C 34 13.216 32.216 15 30 15 L 24 15 C 21.784 15 20 13.216 20 11 z"/>
 </g>
</svg>
