<svg xmlns="http://www.w3.org/2000/svg" xmlns:xlink="http://www.w3.org/1999/xlink" id="svg277" width="224" height="238" version="1">
 <defs id="defs14">
  <linearGradient id="linearGradient1163">
   <stop style="stop-color:#000000;stop-opacity:1" id="stop2" offset="0"/>
   <stop style="stop-color:#000000;stop-opacity:0" id="stop4" offset="1"/>
  </linearGradient>
  <linearGradient id="linearGradient1147">
   <stop style="stop-color:#000000;stop-opacity:1" id="stop7" offset="0"/>
   <stop style="stop-color:#000000;stop-opacity:0" id="stop9" offset="1"/>
  </linearGradient>
  <radialGradient id="radialGradient1149" cx="14" cy="-51" r="5" fx="14" fy="-51" gradientTransform="matrix(0,-2,2,0,116,-23)" gradientUnits="userSpaceOnUse" xlink:href="#linearGradient1147"/>
  <radialGradient id="radialGradient1154" cx="14" cy="-51" r="5" fx="14" fy="-51" gradientTransform="matrix(2,0,0,2,190,51)" gradientUnits="userSpaceOnUse" xlink:href="#linearGradient1147"/>
  <linearGradient id="linearGradient1165" x1="14" x2="14" y1="-51" y2="-61" gradientUnits="userSpaceOnUse" xlink:href="#linearGradient1163"/>
  <radialGradient id="radialGradient1178" cx="14" cy="-51" r="5" fx="14" fy="-51" gradientTransform="matrix(0,2,2,0,116,139)" gradientUnits="userSpaceOnUse" xlink:href="#linearGradient1147"/>
  <radialGradient id="radialGradient1180" cx="14" cy="-51" r="5" fx="14" fy="-51" gradientTransform="matrix(2,0,0,-2,190,65)" gradientUnits="userSpaceOnUse" xlink:href="#linearGradient1147"/>
  <linearGradient id="linearGradient1182" x1="14" x2="14" y1="-51" y2="-61" gradientTransform="matrix(1,0,0,-1,0,116)" gradientUnits="userSpaceOnUse" xlink:href="#linearGradient1163"/>
  <linearGradient id="linearGradient1189" x1="14" x2="14" y1="-51" y2="-61" gradientTransform="matrix(0,1.0686275,1,0,65,-65.960787)" gradientUnits="userSpaceOnUse" xlink:href="#linearGradient1163"/>
  <linearGradient id="linearGradient1193" x1="14" x2="14" y1="-51" y2="-61" gradientTransform="matrix(0,1.0686275,-1,0,167,-65.960787)" gradientUnits="userSpaceOnUse" xlink:href="#linearGradient1163"/>
  <radialGradient id="radialGradient1265" cx="14" cy="-51" r="5" fx="14" fy="-51" gradientTransform="matrix(0,-2,2,0,116,-23)" gradientUnits="userSpaceOnUse" xlink:href="#linearGradient1147"/>
  <radialGradient id="radialGradient1267" cx="14" cy="-51" r="5" fx="14" fy="-51" gradientTransform="matrix(2,0,0,2,190,51)" gradientUnits="userSpaceOnUse" xlink:href="#linearGradient1147"/>
  <linearGradient id="linearGradient1269" x1="14" x2="14" y1="-51" y2="-61" gradientUnits="userSpaceOnUse" xlink:href="#linearGradient1163"/>
  <radialGradient id="radialGradient1271" cx="14" cy="-51" r="5" fx="14" fy="-51" gradientTransform="matrix(0,2,2,0,116,139)" gradientUnits="userSpaceOnUse" xlink:href="#linearGradient1147"/>
  <radialGradient id="radialGradient1273" cx="14" cy="-51" r="5" fx="14" fy="-51" gradientTransform="matrix(2,0,0,-2,190,65)" gradientUnits="userSpaceOnUse" xlink:href="#linearGradient1147"/>
  <linearGradient id="linearGradient1275" x1="14" x2="14" y1="-51" y2="-61" gradientTransform="matrix(1,0,0,-1,0,116)" gradientUnits="userSpaceOnUse" xlink:href="#linearGradient1163"/>
  <linearGradient id="linearGradient1277" x1="14" x2="14" y1="-51" y2="-61" gradientTransform="matrix(0,1.0686275,1,0,65,-65.960787)" gradientUnits="userSpaceOnUse" xlink:href="#linearGradient1163"/>
  <linearGradient id="linearGradient1279" x1="14" x2="14" y1="-51" y2="-61" gradientTransform="matrix(0,1.0686275,-1,0,167,-65.960787)" gradientUnits="userSpaceOnUse" xlink:href="#linearGradient1163"/>
  <radialGradient id="radialGradient1333" cx="14" cy="-51" r="5" fx="14" fy="-51" gradientTransform="matrix(0,-2,2,0,116,-23)" gradientUnits="userSpaceOnUse" xlink:href="#linearGradient1147"/>
  <radialGradient id="radialGradient1335" cx="14" cy="-51" r="5" fx="14" fy="-51" gradientTransform="matrix(2,0,0,2,190,51)" gradientUnits="userSpaceOnUse" xlink:href="#linearGradient1147"/>
  <linearGradient id="linearGradient1337" x1="14" x2="14" y1="-51" y2="-61" gradientUnits="userSpaceOnUse" xlink:href="#linearGradient1163"/>
  <radialGradient id="radialGradient1339" cx="14" cy="-51" r="5" fx="14" fy="-51" gradientTransform="matrix(0,2,2,0,116,139)" gradientUnits="userSpaceOnUse" xlink:href="#linearGradient1147"/>
  <radialGradient id="radialGradient1341" cx="14" cy="-51" r="5" fx="14" fy="-51" gradientTransform="matrix(2,0,0,-2,190,65)" gradientUnits="userSpaceOnUse" xlink:href="#linearGradient1147"/>
  <linearGradient id="linearGradient1343" x1="14" x2="14" y1="-51" y2="-61" gradientTransform="matrix(1,0,0,-1,0,116)" gradientUnits="userSpaceOnUse" xlink:href="#linearGradient1163"/>
  <linearGradient id="linearGradient1345" x1="14" x2="14" y1="-51" y2="-61" gradientTransform="matrix(0,1.0686275,1,0,65,-65.960787)" gradientUnits="userSpaceOnUse" xlink:href="#linearGradient1163"/>
  <linearGradient id="linearGradient1347" x1="14" x2="14" y1="-51" y2="-61" gradientTransform="matrix(0,1.0686275,-1,0,167,-65.960787)" gradientUnits="userSpaceOnUse" xlink:href="#linearGradient1163"/>
  <radialGradient id="radialGradient1349" cx="14" cy="-51" r="5" fx="14" fy="-51" gradientTransform="matrix(0,-2,2,0,116,-23)" gradientUnits="userSpaceOnUse" xlink:href="#linearGradient1147"/>
  <radialGradient id="radialGradient1351" cx="14" cy="-51" r="5" fx="14" fy="-51" gradientTransform="matrix(2,0,0,2,190,51)" gradientUnits="userSpaceOnUse" xlink:href="#linearGradient1147"/>
  <linearGradient id="linearGradient1353" x1="14" x2="14" y1="-51" y2="-61" gradientUnits="userSpaceOnUse" xlink:href="#linearGradient1163"/>
  <radialGradient id="radialGradient1355" cx="14" cy="-51" r="5" fx="14" fy="-51" gradientTransform="matrix(0,2,2,0,116,139)" gradientUnits="userSpaceOnUse" xlink:href="#linearGradient1147"/>
  <radialGradient id="radialGradient1357" cx="14" cy="-51" r="5" fx="14" fy="-51" gradientTransform="matrix(2,0,0,-2,190,65)" gradientUnits="userSpaceOnUse" xlink:href="#linearGradient1147"/>
  <linearGradient id="linearGradient1359" x1="14" x2="14" y1="-51" y2="-61" gradientTransform="matrix(1,0,0,-1,0,116)" gradientUnits="userSpaceOnUse" xlink:href="#linearGradient1163"/>
  <linearGradient id="linearGradient1361" x1="14" x2="14" y1="-51" y2="-61" gradientTransform="matrix(0,1.0686275,1,0,65,-65.960787)" gradientUnits="userSpaceOnUse" xlink:href="#linearGradient1163"/>
  <linearGradient id="linearGradient1363" x1="14" x2="14" y1="-51" y2="-61" gradientTransform="matrix(0,1.0686275,-1,0,167,-65.960787)" gradientUnits="userSpaceOnUse" xlink:href="#linearGradient1163"/>
  <radialGradient id="radialGradient1485" cx="14" cy="-51" r="5" fx="14" fy="-51" gradientTransform="matrix(0,-2,2,0,116,-23)" gradientUnits="userSpaceOnUse" xlink:href="#linearGradient1147"/>
  <radialGradient id="radialGradient1487" cx="14" cy="-51" r="5" fx="14" fy="-51" gradientTransform="matrix(2,0,0,2,190,51)" gradientUnits="userSpaceOnUse" xlink:href="#linearGradient1147"/>
  <linearGradient id="linearGradient1489" x1="14" x2="14" y1="-51" y2="-61" gradientUnits="userSpaceOnUse" xlink:href="#linearGradient1163"/>
  <radialGradient id="radialGradient1491" cx="14" cy="-51" r="5" fx="14" fy="-51" gradientTransform="matrix(0,2,2,0,116,139)" gradientUnits="userSpaceOnUse" xlink:href="#linearGradient1147"/>
  <radialGradient id="radialGradient1493" cx="14" cy="-51" r="5" fx="14" fy="-51" gradientTransform="matrix(2,0,0,-2,190,65)" gradientUnits="userSpaceOnUse" xlink:href="#linearGradient1147"/>
  <linearGradient id="linearGradient1495" x1="14" x2="14" y1="-51" y2="-61" gradientTransform="matrix(1,0,0,-1,0,116)" gradientUnits="userSpaceOnUse" xlink:href="#linearGradient1163"/>
  <linearGradient id="linearGradient1497" x1="14" x2="14" y1="-51" y2="-61" gradientTransform="matrix(0,1.0686275,1,0,65,-65.960787)" gradientUnits="userSpaceOnUse" xlink:href="#linearGradient1163"/>
  <linearGradient id="linearGradient1499" x1="14" x2="14" y1="-51" y2="-61" gradientTransform="matrix(0,1.0686275,-1,0,167,-65.960787)" gradientUnits="userSpaceOnUse" xlink:href="#linearGradient1163"/>
  <radialGradient id="radialGradient1501" cx="14" cy="-51" r="5" fx="14" fy="-51" gradientTransform="matrix(0,-2,2,0,116,-23)" gradientUnits="userSpaceOnUse" xlink:href="#linearGradient1147"/>
  <radialGradient id="radialGradient1503" cx="14" cy="-51" r="5" fx="14" fy="-51" gradientTransform="matrix(2,0,0,2,190,51)" gradientUnits="userSpaceOnUse" xlink:href="#linearGradient1147"/>
  <linearGradient id="linearGradient1505" x1="14" x2="14" y1="-51" y2="-61" gradientUnits="userSpaceOnUse" xlink:href="#linearGradient1163"/>
  <radialGradient id="radialGradient1507" cx="14" cy="-51" r="5" fx="14" fy="-51" gradientTransform="matrix(0,2,2,0,116,139)" gradientUnits="userSpaceOnUse" xlink:href="#linearGradient1147"/>
  <radialGradient id="radialGradient1509" cx="14" cy="-51" r="5" fx="14" fy="-51" gradientTransform="matrix(2,0,0,-2,190,65)" gradientUnits="userSpaceOnUse" xlink:href="#linearGradient1147"/>
  <linearGradient id="linearGradient1511" x1="14" x2="14" y1="-51" y2="-61" gradientTransform="matrix(1,0,0,-1,0,116)" gradientUnits="userSpaceOnUse" xlink:href="#linearGradient1163"/>
  <linearGradient id="linearGradient1513" x1="14" x2="14" y1="-51" y2="-61" gradientTransform="matrix(0,1.0686275,1,0,65,-65.960787)" gradientUnits="userSpaceOnUse" xlink:href="#linearGradient1163"/>
  <linearGradient id="linearGradient1515" x1="14" x2="14" y1="-51" y2="-61" gradientTransform="matrix(0,1.0686275,-1,0,167,-65.960787)" gradientUnits="userSpaceOnUse" xlink:href="#linearGradient1163"/>
  <radialGradient id="radialGradient1517" cx="14" cy="-51" r="5" fx="14" fy="-51" gradientTransform="matrix(0,-2,2,0,116,-23)" gradientUnits="userSpaceOnUse" xlink:href="#linearGradient1147"/>
  <radialGradient id="radialGradient1519" cx="14" cy="-51" r="5" fx="14" fy="-51" gradientTransform="matrix(2,0,0,2,190,51)" gradientUnits="userSpaceOnUse" xlink:href="#linearGradient1147"/>
  <linearGradient id="linearGradient1521" x1="14" x2="14" y1="-51" y2="-61" gradientUnits="userSpaceOnUse" xlink:href="#linearGradient1163"/>
  <radialGradient id="radialGradient1523" cx="14" cy="-51" r="5" fx="14" fy="-51" gradientTransform="matrix(0,2,2,0,116,139)" gradientUnits="userSpaceOnUse" xlink:href="#linearGradient1147"/>
  <radialGradient id="radialGradient1525" cx="14" cy="-51" r="5" fx="14" fy="-51" gradientTransform="matrix(2,0,0,-2,190,65)" gradientUnits="userSpaceOnUse" xlink:href="#linearGradient1147"/>
  <linearGradient id="linearGradient1527" x1="14" x2="14" y1="-51" y2="-61" gradientTransform="matrix(1,0,0,-1,0,116)" gradientUnits="userSpaceOnUse" xlink:href="#linearGradient1163"/>
  <linearGradient id="linearGradient1529" x1="14" x2="14" y1="-51" y2="-61" gradientTransform="matrix(0,1.0686275,1,0,65,-65.960787)" gradientUnits="userSpaceOnUse" xlink:href="#linearGradient1163"/>
  <linearGradient id="linearGradient1531" x1="14" x2="14" y1="-51" y2="-61" gradientTransform="matrix(0,1.0686275,-1,0,167,-65.960787)" gradientUnits="userSpaceOnUse" xlink:href="#linearGradient1163"/>
  <radialGradient id="radialGradient1559" cx="14" cy="-51" r="5" fx="14" fy="-51" gradientTransform="matrix(0,-2,2,0,116,-23)" gradientUnits="userSpaceOnUse" xlink:href="#linearGradient1147"/>
  <radialGradient id="radialGradient1561" cx="14" cy="-51" r="5" fx="14" fy="-51" gradientTransform="matrix(2,0,0,2,190,51)" gradientUnits="userSpaceOnUse" xlink:href="#linearGradient1147"/>
  <linearGradient id="linearGradient1563" x1="14" x2="14" y1="-51" y2="-61" gradientUnits="userSpaceOnUse" xlink:href="#linearGradient1163"/>
  <radialGradient id="radialGradient1565" cx="14" cy="-51" r="5" fx="14" fy="-51" gradientTransform="matrix(0,2,2,0,116,139)" gradientUnits="userSpaceOnUse" xlink:href="#linearGradient1147"/>
  <radialGradient id="radialGradient1567" cx="14" cy="-51" r="5" fx="14" fy="-51" gradientTransform="matrix(2,0,0,-2,190,65)" gradientUnits="userSpaceOnUse" xlink:href="#linearGradient1147"/>
  <linearGradient id="linearGradient1569" x1="14" x2="14" y1="-51" y2="-61" gradientTransform="matrix(1,0,0,-1,0,116)" gradientUnits="userSpaceOnUse" xlink:href="#linearGradient1163"/>
  <linearGradient id="linearGradient1571" x1="14" x2="14" y1="-51" y2="-61" gradientTransform="matrix(0,1.0686275,1,0,65,-65.960787)" gradientUnits="userSpaceOnUse" xlink:href="#linearGradient1163"/>
  <linearGradient id="linearGradient1573" x1="14" x2="14" y1="-51" y2="-61" gradientTransform="matrix(0,1.0686275,-1,0,167,-65.960787)" gradientUnits="userSpaceOnUse" xlink:href="#linearGradient1163"/>
 </defs>
 <g id="white-notes" transform="translate(-4,-177)">
  <g style="opacity:0.399" id="g93">
   <path style="fill:url(#radialGradient1149)" id="path77" d="m 4,-61 h 10 v 10 H 4 Z"/>
   <path style="fill:url(#radialGradient1154)" id="path79" d="m 228,-61 v 10 h -10 v -10 z"/>
   <path style="fill:url(#linearGradient1165)" id="path81" d="m 14,-61 h 204 v 10 H 14 Z"/>
   <path style="fill:url(#radialGradient1178)" id="path83" d="M 4,177 H 14 V 167 H 4 Z"/>
   <path style="fill:url(#radialGradient1180)" id="path85" d="m 228,177 v -10 h -10 v 10 z"/>
   <path style="fill:url(#linearGradient1182)" id="path87" d="M 14,177 H 218 V 167 H 14 Z"/>
   <path style="fill:url(#linearGradient1189)" id="path89" d="M 4,-51 V 167 H 14 V -51 Z"/>
   <path style="fill:url(#linearGradient1193)" id="path91" d="M 228,-51 V 167 H 218 V -51 Z"/>
  </g>
  <rect style="opacity:0.37" id="rect95" width="216" height="230" x="8" y="-57" rx="4.5" ry="4.5"/>
  <rect style="fill:#f9f9f9" id="rect97" width="214" height="228" x="9" y="-56" rx="4" ry="4"/>
  <path style="opacity:0.8;fill:#ffffff" id="path99" transform="translate(116,104)" d="m -103,-160 c -2.216,0 -4,1.784 -4,4 v 1 c 0,-2.216 1.784,-4 4,-4 h 206 c 2.216,0 4,1.784 4,4 v -1 c 0,-2.216 -1.784,-4 -4,-4 z"/>
 </g>
 <g id="black-notes" transform="translate(220,-177)">
  <g style="opacity:0.399" id="g118">
   <path style="fill:url(#radialGradient1265)" id="path102" d="m 4,-61 h 10 v 10 H 4 Z"/>
   <path style="fill:url(#radialGradient1267)" id="path104" d="m 228,-61 v 10 h -10 v -10 z"/>
   <path style="fill:url(#linearGradient1269)" id="path106" d="m 14,-61 h 204 v 10 H 14 Z"/>
   <path style="fill:url(#radialGradient1271)" id="path108" d="M 4,177 H 14 V 167 H 4 Z"/>
   <path style="fill:url(#radialGradient1273)" id="path110" d="m 228,177 v -10 h -10 v 10 z"/>
   <path style="fill:url(#linearGradient1275)" id="path112" d="M 14,177 H 218 V 167 H 14 Z"/>
   <path style="fill:url(#linearGradient1277)" id="path114" d="M 4,-51 V 167 H 14 V -51 Z"/>
   <path style="fill:url(#linearGradient1279)" id="path116" d="M 228,-51 V 167 H 218 V -51 Z"/>
  </g>
  <rect style="opacity:0.37" id="rect120" width="216" height="230" x="8" y="-57" rx="4.5" ry="4.5"/>
  <rect style="fill:#353535" id="rect122" width="214" height="228" x="9" y="-56" rx="4" ry="4"/>
  <path style="opacity:0.2;fill:#ffffff" id="path124" transform="translate(116,104)" d="m -103,-160 c -2.216,0 -4,1.784 -4,4 v 1 c 0,-2.216 1.784,-4 4,-4 h 206 c 2.216,0 4,1.784 4,4 v -1 c 0,-2.216 -1.784,-4 -4,-4 z"/>
 </g>
 <g id="orange-notes" transform="translate(444,-177)">
  <g style="opacity:0.399" id="g143">
   <path style="fill:url(#radialGradient1349)" id="path127" d="m 4,-61 h 10 v 10 H 4 Z"/>
   <path style="fill:url(#radialGradient1351)" id="path129" d="m 228,-61 v 10 h -10 v -10 z"/>
   <path style="fill:url(#linearGradient1353)" id="path131" d="m 14,-61 h 204 v 10 H 14 Z"/>
   <path style="fill:url(#radialGradient1355)" id="path133" d="M 4,177 H 14 V 167 H 4 Z"/>
   <path style="fill:url(#radialGradient1357)" id="path135" d="m 228,177 v -10 h -10 v 10 z"/>
   <path style="fill:url(#linearGradient1359)" id="path137" d="M 14,177 H 218 V 167 H 14 Z"/>
   <path style="fill:url(#linearGradient1361)" id="path139" d="M 4,-51 V 167 H 14 V -51 Z"/>
   <path style="fill:url(#linearGradient1363)" id="path141" d="M 228,-51 V 167 H 218 V -51 Z"/>
  </g>
  <rect style="opacity:0.37" id="rect145" width="216" height="230" x="8" y="-57" rx="4.5" ry="4.5"/>
  <rect style="fill:#ff7a0d" id="rect147" width="214" height="228" x="9" y="-56" rx="4" ry="4"/>
  <path style="opacity:0.4;fill:#ffffff" id="path149" transform="translate(116,104)" d="m -103,-160 c -2.216,0 -4,1.784 -4,4 v 1 c 0,-2.216 1.784,-4 4,-4 h 206 c 2.216,0 4,1.784 4,4 v -1 c 0,-2.216 -1.784,-4 -4,-4 z"/>
 </g>
 <g id="green-notes" transform="translate(668,-177)">
  <g style="opacity:0.399" id="g168">
   <path style="fill:url(#radialGradient1333)" id="path152" d="m 4,-61 h 10 v 10 H 4 Z"/>
   <path style="fill:url(#radialGradient1335)" id="path154" d="m 228,-61 v 10 h -10 v -10 z"/>
   <path style="fill:url(#linearGradient1337)" id="path156" d="m 14,-61 h 204 v 10 H 14 Z"/>
   <path style="fill:url(#radialGradient1339)" id="path158" d="M 4,177 H 14 V 167 H 4 Z"/>
   <path style="fill:url(#radialGradient1341)" id="path160" d="m 228,177 v -10 h -10 v 10 z"/>
   <path style="fill:url(#linearGradient1343)" id="path162" d="M 14,177 H 218 V 167 H 14 Z"/>
   <path style="fill:url(#linearGradient1345)" id="path164" d="M 4,-51 V 167 H 14 V -51 Z"/>
   <path style="fill:url(#linearGradient1347)" id="path166" d="M 228,-51 V 167 H 218 V -51 Z"/>
  </g>
  <rect style="opacity:0.37" id="rect170" width="216" height="230" x="8" y="-57" rx="4.5" ry="4.5"/>
  <rect style="fill:#46b04a" id="rect172" width="214" height="228" x="9" y="-56" rx="4" ry="4"/>
  <path style="opacity:0.4;fill:#ffffff" id="path174" transform="translate(116,104)" d="m -103,-160 c -2.216,0 -4,1.784 -4,4 v 1 c 0,-2.216 1.784,-4 4,-4 h 206 c 2.216,0 4,1.784 4,4 v -1 c 0,-2.216 -1.784,-4 -4,-4 z"/>
 </g>
 <g id="blue-notes" transform="translate(-4,61)">
  <g style="opacity:0.399" id="g193">
   <path style="fill:url(#radialGradient1517)" id="path177" d="m 4,-61 h 10 v 10 H 4 Z"/>
   <path style="fill:url(#radialGradient1519)" id="path179" d="m 228,-61 v 10 h -10 v -10 z"/>
   <path style="fill:url(#linearGradient1521)" id="path181" d="m 14,-61 h 204 v 10 H 14 Z"/>
   <path style="fill:url(#radialGradient1523)" id="path183" d="M 4,177 H 14 V 167 H 4 Z"/>
   <path style="fill:url(#radialGradient1525)" id="path185" d="m 228,177 v -10 h -10 v 10 z"/>
   <path style="fill:url(#linearGradient1527)" id="path187" d="M 14,177 H 218 V 167 H 14 Z"/>
   <path style="fill:url(#linearGradient1529)" id="path189" d="M 4,-51 V 167 H 14 V -51 Z"/>
   <path style="fill:url(#linearGradient1531)" id="path191" d="M 228,-51 V 167 H 218 V -51 Z"/>
  </g>
  <rect style="opacity:0.37" id="rect195" width="216" height="230" x="8" y="-57" rx="4.5" ry="4.5"/>
  <rect style="fill:#1a73e8" id="rect197" width="214" height="228" x="9" y="-56" rx="4" ry="4"/>
  <path style="opacity:0.4;fill:#ffffff" id="path199" transform="translate(116,104)" d="m -103,-160 c -2.216,0 -4,1.784 -4,4 v 1 c 0,-2.216 1.784,-4 4,-4 h 206 c 2.216,0 4,1.784 4,4 v -1 c 0,-2.216 -1.784,-4 -4,-4 z"/>
 </g>
 <g id="pink-notes" transform="translate(220,61)">
  <g style="opacity:0.399" id="g218">
   <path style="fill:url(#radialGradient1501)" id="path202" d="m 4,-61 h 10 v 10 H 4 Z"/>
   <path style="fill:url(#radialGradient1503)" id="path204" d="m 228,-61 v 10 h -10 v -10 z"/>
   <path style="fill:url(#linearGradient1505)" id="path206" d="m 14,-61 h 204 v 10 H 14 Z"/>
   <path style="fill:url(#radialGradient1507)" id="path208" d="M 4,177 H 14 V 167 H 4 Z"/>
   <path style="fill:url(#radialGradient1509)" id="path210" d="m 228,177 v -10 h -10 v 10 z"/>
   <path style="fill:url(#linearGradient1511)" id="path212" d="M 14,177 H 218 V 167 H 14 Z"/>
   <path style="fill:url(#linearGradient1513)" id="path214" d="M 4,-51 V 167 H 14 V -51 Z"/>
   <path style="fill:url(#linearGradient1515)" id="path216" d="M 228,-51 V 167 H 218 V -51 Z"/>
  </g>
  <rect style="opacity:0.37" id="rect220" width="216" height="230" x="8" y="-57" rx="4.5" ry="4.5"/>
  <rect style="fill:#ec407a" id="rect222" width="214" height="228" x="9" y="-56" rx="4" ry="4"/>
  <path style="opacity:0.4;fill:#ffffff" id="path224" transform="translate(116,104)" d="m -103,-160 c -2.216,0 -4,1.784 -4,4 v 1 c 0,-2.216 1.784,-4 4,-4 h 206 c 2.216,0 4,1.784 4,4 v -1 c 0,-2.216 -1.784,-4 -4,-4 z"/>
 </g>
 <g id="yellow-notes" transform="translate(668,61)">
  <g style="opacity:0.399" id="g243">
   <path style="fill:url(#radialGradient1485)" id="path227" d="m 4,-61 h 10 v 10 H 4 Z"/>
   <path style="fill:url(#radialGradient1487)" id="path229" d="m 228,-61 v 10 h -10 v -10 z"/>
   <path style="fill:url(#linearGradient1489)" id="path231" d="m 14,-61 h 204 v 10 H 14 Z"/>
   <path style="fill:url(#radialGradient1491)" id="path233" d="M 4,177 H 14 V 167 H 4 Z"/>
   <path style="fill:url(#radialGradient1493)" id="path235" d="m 228,177 v -10 h -10 v 10 z"/>
   <path style="fill:url(#linearGradient1495)" id="path237" d="M 14,177 H 218 V 167 H 14 Z"/>
   <path style="fill:url(#linearGradient1497)" id="path239" d="M 4,-51 V 167 H 14 V -51 Z"/>
   <path style="fill:url(#linearGradient1499)" id="path241" d="M 228,-51 V 167 H 218 V -51 Z"/>
  </g>
  <rect style="opacity:0.37" id="rect245" width="216" height="230" x="8" y="-57" rx="4.5" ry="4.5"/>
  <rect style="fill:#ffca28" id="rect247" width="214" height="228" x="9" y="-56" rx="4" ry="4"/>
  <path style="opacity:0.6;fill:#ffffff" id="path249" transform="translate(116,104)" d="m -103,-160 c -2.216,0 -4,1.784 -4,4 v 1 c 0,-2.216 1.784,-4 4,-4 h 206 c 2.216,0 4,1.784 4,4 v -1 c 0,-2.216 -1.784,-4 -4,-4 z"/>
 </g>
 <g id="red-notes" transform="translate(444,61)">
  <g style="opacity:0.399" id="g268">
   <path style="fill:url(#radialGradient1559)" id="path252" d="m 4,-61 h 10 v 10 H 4 Z"/>
   <path style="fill:url(#radialGradient1561)" id="path254" d="m 228,-61 v 10 h -10 v -10 z"/>
   <path style="fill:url(#linearGradient1563)" id="path256" d="m 14,-61 h 204 v 10 H 14 Z"/>
   <path style="fill:url(#radialGradient1565)" id="path258" d="M 4,177 H 14 V 167 H 4 Z"/>
   <path style="fill:url(#radialGradient1567)" id="path260" d="m 228,177 v -10 h -10 v 10 z"/>
   <path style="fill:url(#linearGradient1569)" id="path262" d="M 14,177 H 218 V 167 H 14 Z"/>
   <path style="fill:url(#linearGradient1571)" id="path264" d="M 4,-51 V 167 H 14 V -51 Z"/>
   <path style="fill:url(#linearGradient1573)" id="path266" d="M 228,-51 V 167 H 218 V -51 Z"/>
  </g>
  <rect style="opacity:0.37" id="rect270" width="216" height="230" x="8" y="-57" rx="4.5" ry="4.5"/>
  <rect style="fill:#f23a3a" id="rect272" width="214" height="228" x="9" y="-56" rx="4" ry="4"/>
  <path style="opacity:0.4;fill:#ffffff" id="path274" transform="translate(116,104)" d="m -103,-160 c -2.216,0 -4,1.784 -4,4 v 1 c 0,-2.216 1.784,-4 4,-4 h 206 c 2.216,0 4,1.784 4,4 v -1 c 0,-2.216 -1.784,-4 -4,-4 z"/>
 </g>
</svg>
