<svg xmlns="http://www.w3.org/2000/svg" id="svg69" width="129" height="85" version="1">
 <rect id="header-center" style="fill:#cecece" width="48" height="48" x="3" y="30"/>
 <g id="header-topleft" transform="matrix(0.42857143,0,0,0.42857204,-78.428576,-81.000073)">
  <path style="fill:#cecece" id="path3" d="m 190.00001,251.99982 v 7 h -7 c -1e-5,-5 1.99999,-7 7,-6.99999 z"/>
 </g>
 <g id="header-left" transform="matrix(0.42857143,0,0,0.95999981,-78.42858,-218.63976)">
  <path style="fill:#cecece" id="path6" d="m 183.00002,258.99981 v 50 l 7,10e-6 v -50 z"/>
 </g>
 <g id="header-right" transform="matrix(0.42857143,0,0,0.95999981,-51.857143,-218.63976)">
  <path style="fill:#cecece" id="path9" d="m 247,258.99982 v 50 l -7,10e-6 v -50 z"/>
 </g>
 <g id="header-topright" transform="matrix(0.42857143,0,0,0.42857143,-51.857143,-80.999906)">
  <path style="fill:#cecece" id="path12" d="m 240,251.99982 v 7 h 7 c -3e-5,-5 -2.00003,-7 -7,-7 z"/>
 </g>
 <g id="header-top" transform="matrix(0.95999962,0,0,0.42857143,-179.39992,-80.999906)">
  <path style="fill:#cecece" id="path15" d="M 189.99998,251.99982 H 240 v 7 h -50.00001 z"/>
 </g>
 <rect id="hint-top-margin" style="fill:#ff0000" width="4" height="7" x="25" y="30"/>
 <rect id="hint-left-margin" style="fill:#ff0000" width="7" height="4" x="3" y="52"/>
 <rect id="hint-right-margin" style="fill:#ff0000" width="7" height="4" x="44" y="52"/>
 <rect id="hint-stretch-borders" style="fill:#ff0000" width="5" height="5" x="0" y="0"/>
 <g id="header-bottomleft" transform="matrix(0.42857082,0,0,2.9994626,-4.0729978e-6,-173.95578)">
  <path style="fill:#cecece" id="path22" d="m 7.00002,84.667017 v -0.666704 h -7 l -1e-5,0.666849 z"/>
  <path style="opacity:0.37" id="path24" d="m 7.00002,85.000534 v -0.333409 h -7 l -1e-5,0.33343 z"/>
 </g>
 <g id="header-bottom" transform="matrix(0.95999962,0,0,2.999709,-3.7199971,-173.97389)">
  <path style="fill:#cecece" id="path27" d="m 6.99999,84.666179 h 50.00002 v -0.66673 H 7 Z"/>
  <path style="opacity:0.37" id="path29" d="M 6.99999,84.999546 H 57.00001 V 84.666153 H 7 Z"/>
 </g>
 <g id="header-bottomright" transform="matrix(0.42857143,0,0,2.9994601,26.571424,-173.95428)">
  <path style="fill:#cecece" id="path32" d="m 57.00001,84.666596 v -0.666714 h 7 v 0.666858 z"/>
  <path style="opacity:0.37" id="path34" d="m 57.00001,85.000041 v -0.333409 h 7 v 0.33343 z"/>
 </g>
 <rect id="hint-bottom-margin" style="fill:#ff0000" width="4" height="7" x="25" y="71"/>
 <rect id="footer-center" style="fill:#cecece" width="48" height="48" x="68" y="30"/>
 <g id="footer-bottomleft" transform="matrix(0.42857082,0,0,0.42857144,-13.428445,-29.999926)">
  <path style="fill:#cecece" id="path39" d="m 190.00001,251.99982 v 7 c -5.00002,0 -7.00002,-2 -7.00001,-6.99899 0,0 7,0 7.00001,-0.001 z"/>
 </g>
 <g id="footer-left" transform="matrix(0.42857143,0,0,0.95999981,-13.42856,-218.63977)">
  <path style="fill:#cecece" id="path42" d="m 183.00002,258.99981 v 50 l 7,10e-6 v -50 z"/>
 </g>
 <g id="footer-right" transform="matrix(0.42857143,0,0,0.95999981,13.142877,-218.63978)">
  <path style="fill:#cecece" id="path45" d="m 247,258.99982 v 50 l -7,10e-6 v -50 z"/>
 </g>
 <g id="footer-bottomright" transform="matrix(0.42857143,0,0,0.42857143,13.142877,-29.999923)">
  <path style="fill:#cecece" id="path48" d="m 240,251.99982 v 7 c 4.99997,0 6.99997,-2 7,-6.99899 z"/>
 </g>
 <g id="footer-bottom" transform="translate(-121.99996,-177.99982)">
  <path style="fill:#cecece" id="path51" d="m 189.99998,255.99982 h 48 v 3 h -47.99999 z"/>
 </g>
 <g id="footer-topleft" transform="matrix(0.42857082,0,0,-0.42856243,65.000016,63.427369)">
  <path style="fill:#cecece" id="path54" d="m 7.00002,82.664734 v -4.665898 h -7 L 1e-5,82.6656 Z"/>
  <path style="opacity:0.37" id="path56" d="m 7.00002,84.998839 v -2.334032 h -7 l -1e-5,2.334176 z"/>
 </g>
 <g id="footer-top" transform="matrix(0.95999962,0,0,-0.42858025,61.280033,63.428188)">
  <path style="fill:#cecece" id="path59" d="M 6.99999,82.664933 H 57.00001 V 77.99898 H 7 Z"/>
  <path style="opacity:0.37" id="path61" d="M 6.99999,84.998836 H 57.00001 V 82.66486 H 7 Z"/>
 </g>
 <g id="footer-topright" transform="matrix(0.42857143,0,0,-0.42856249,91.571444,63.427373)">
  <path style="fill:#cecece" id="path64" d="m 57.00001,82.664734 v -4.665898 h 7 V 82.6656 Z"/>
  <path style="opacity:0.37" id="path66" d="m 57.00001,84.998838 v -2.334031 h 7 v 2.334175 z"/>
 </g>
</svg>
