<svg xmlns="http://www.w3.org/2000/svg" xmlns:xlink="http://www.w3.org/1999/xlink" id="svg99" width="64" height="52" version="1">
 <defs id="defs57">
  <linearGradient id="linearGradient3145" x1="253" x2="253" y1="759" y2="746" gradientTransform="matrix(0.98901099,0,0,0.98901099,2.7857119,8.2692449)" gradientUnits="userSpaceOnUse" xlink:href="#linearGradient3143"/>
  <linearGradient id="linearGradient3143">
   <stop style="stop-color:#efefef;stop-opacity:1" id="stop3139" offset="0"/>
   <stop style="stop-color:#fdfdfd;stop-opacity:1" id="stop3141" offset="1"/>
  </linearGradient>
  <linearGradient id="linearGradient3193" x1="253" x2="253" y1="759" y2="746" gradientTransform="matrix(0.98901099,0,0,0.98901099,2.7857343,8.2692273)" gradientUnits="userSpaceOnUse" xlink:href="#linearGradient3163"/>
  <linearGradient id="linearGradient3163">
   <stop id="stop3159" offset="0" style="stop-color:#dadada;stop-opacity:1"/>
   <stop id="stop3161" offset="1" style="stop-color:#e6e6e6;stop-opacity:1"/>
  </linearGradient>
  <linearGradient id="linearGradient1355" x1="253" x2="253" y1="759" y2="746" gradientTransform="matrix(0.98901099,0,0,0.98901099,2.7857343,8.2692273)" gradientUnits="userSpaceOnUse" xlink:href="#linearGradient3163"/>
  <linearGradient id="linearGradient962" x1="253" x2="253" y1="759" y2="746" gradientTransform="matrix(0.98901099,0,0,0.98901099,2.7857343,8.2692273)" gradientUnits="userSpaceOnUse" xlink:href="#linearGradient3163"/>
  <linearGradient id="linearGradient964" x1="253" x2="253" y1="759" y2="746" gradientTransform="matrix(0.98901099,0,0,0.98901099,2.7857343,8.2692273)" gradientUnits="userSpaceOnUse" xlink:href="#linearGradient3163"/>
  <linearGradient id="linearGradient966" x1="253" x2="253" y1="759" y2="746" gradientTransform="matrix(0.98901099,0,0,0.98901099,2.7857119,8.2692449)" gradientUnits="userSpaceOnUse" xlink:href="#linearGradient3143"/>
 </defs>
 <g id="vertical-slider-handle" transform="matrix(0.93333333,0,0,0.93333333,-227.6,-672.33333)">
  <circle id="circle3137" cx="253.5" cy="752.5" r="7.5" style="opacity:0.37"/>
  <circle cx="253.5" cy="752.5" style="fill:url(#linearGradient3145)" id="circle3133" r="6.429"/>
 </g>
 <g id="vertical-slider-focus" transform="matrix(0.93333333,0,0,0.93333333,-195.6,-672.33333)">
  <circle id="circle3165" cx="253.5" cy="752.5" r="7.5" style="fill:#14457a"/>
  <circle cx="253.5" cy="752.5" style="fill:url(#linearGradient1355)" id="circle3167" r="6.429"/>
  <path style="opacity:0.5;fill:#ffffff" id="circle3173" d="m 253.50002,746.07143 a 6.4285715,6.4285715 0 0 0 -6.42857,6.42857 6.4285715,6.4285715 0 0 0 0.0231,0.52348 6.4285715,6.4285715 0 0 1 6.40543,-5.96304 6.4285715,6.4285715 0 0 1 6.40539,5.90509 6.4285715,6.4285715 0 0 0 0.0232,-0.46553 6.4285715,6.4285715 0 0 0 -6.42857,-6.42857 z"/>
  <path style="opacity:0.2" id="circle3178" d="m 259.90541,751.97652 a 6.4285715,6.4285715 0 0 1 -6.40539,5.96304 6.4285715,6.4285715 0 0 1 -6.40539,-5.90509 6.4285715,6.4285715 0 0 0 -0.0232,0.46553 6.4285715,6.4285715 0 0 0 6.42857,6.42857 6.4285715,6.4285715 0 0 0 6.42857,-6.42857 6.4285715,6.4285715 0 0 0 -0.0231,-0.52348 z"/>
 </g>
 <g id="vertical-slider-hover" transform="matrix(0.93333333,0,0,0.93333333,-211.6,-672.33333)">
  <circle cx="253.5" cy="752.5" style="opacity:0.1" id="circle3183" r="7.5"/>
  <circle id="circle3185" cx="253.5" cy="752.5" r="6.429" style="fill:url(#linearGradient3193)"/>
  <path id="path3187" d="m 253.50002,746.07143 a 6.4285715,6.4285715 0 0 0 -6.42857,6.42857 6.4285715,6.4285715 0 0 0 0.0231,0.52348 6.4285715,6.4285715 0 0 1 6.40543,-5.96304 6.4285715,6.4285715 0 0 1 6.40539,5.90509 6.4285715,6.4285715 0 0 0 0.0232,-0.46553 6.4285715,6.4285715 0 0 0 -6.42857,-6.42857 z" style="opacity:0.5;fill:#ffffff"/>
  <path id="path3189" d="m 259.90541,751.97652 a 6.4285715,6.4285715 0 0 1 -6.40539,5.96304 6.4285715,6.4285715 0 0 1 -6.40539,-5.90509 6.4285715,6.4285715 0 0 0 -0.0232,0.46553 6.4285715,6.4285715 0 0 0 6.42857,6.42857 6.4285715,6.4285715 0 0 0 6.42857,-6.42857 6.4285715,6.4285715 0 0 0 -0.0231,-0.52348 z" style="opacity:0.2"/>
 </g>
 <rect id="hint-tile-center" style="fill:#ff0000" width="1" height="1" x="41" y="5" rx="0" ry="1"/>
 <g id="horizontal-slider-shadow" style="opacity:0.001" transform="matrix(0.58333333,0,0,0.58333333,-5.9999997,-19.166667)">
  <rect style="opacity:0.001" id="rect13" width="24" height="24" x="96" y="98"/>
 </g>
 <g id="vertical-slider-shadow" style="opacity:0.001" transform="matrix(0.58333333,0,0,0.58333333,-5.9999997,-34.166667)">
  <rect style="opacity:0.001" id="rect16" width="24" height="24" x="96" y="98"/>
 </g>
 <circle id="hint-handle-size" style="fill:#ff0000" cx="54" cy="7" r="7"/>
 <g id="horizontal-slider-handle" transform="matrix(0.93333333,0,0,0.93333333,-227.6,-657.33333)">
  <circle id="circle936" cx="253.5" cy="752.5" r="7.5" style="opacity:0.37"/>
  <circle cx="253.5" cy="752.5" style="fill:url(#linearGradient966)" id="circle938" r="6.429"/>
 </g>
 <g id="horizontal-slider-focus" transform="matrix(0.93333333,0,0,0.93333333,-195.6,-657.33333)">
  <circle id="circle942" cx="253.5" cy="752.5" r="7.5" style="fill:#14457a"/>
  <circle cx="253.5" cy="752.5" style="fill:url(#linearGradient964)" id="circle944" r="6.429"/>
  <path style="opacity:0.5;fill:#ffffff" id="path946" d="m 253.50002,746.07143 a 6.4285715,6.4285715 0 0 0 -6.42857,6.42857 6.4285715,6.4285715 0 0 0 0.0231,0.52348 6.4285715,6.4285715 0 0 1 6.40543,-5.96304 6.4285715,6.4285715 0 0 1 6.40539,5.90509 6.4285715,6.4285715 0 0 0 0.0232,-0.46553 6.4285715,6.4285715 0 0 0 -6.42857,-6.42857 z"/>
  <path style="opacity:0.2" id="path948" d="m 259.90541,751.97652 a 6.4285715,6.4285715 0 0 1 -6.40539,5.96304 6.4285715,6.4285715 0 0 1 -6.40539,-5.90509 6.4285715,6.4285715 0 0 0 -0.0232,0.46553 6.4285715,6.4285715 0 0 0 6.42857,6.42857 6.4285715,6.4285715 0 0 0 6.42857,-6.42857 6.4285715,6.4285715 0 0 0 -0.0231,-0.52348 z"/>
 </g>
 <g id="horizontal-slider-hover" transform="matrix(0.93333333,0,0,0.93333333,-211.6,-657.33333)">
  <circle cx="253.5" cy="752.5" style="opacity:0.1" id="circle952" r="7.5"/>
  <circle id="circle954" cx="253.5" cy="752.5" r="6.429" style="fill:url(#linearGradient962)"/>
  <path id="path956" d="m 253.50002,746.07143 a 6.4285715,6.4285715 0 0 0 -6.42857,6.42857 6.4285715,6.4285715 0 0 0 0.0231,0.52348 6.4285715,6.4285715 0 0 1 6.40543,-5.96304 6.4285715,6.4285715 0 0 1 6.40539,5.90509 6.4285715,6.4285715 0 0 0 0.0232,-0.46553 6.4285715,6.4285715 0 0 0 -6.42857,-6.42857 z" style="opacity:0.5;fill:#ffffff"/>
  <path id="path958" d="m 259.90541,751.97652 a 6.4285715,6.4285715 0 0 1 -6.40539,5.96304 6.4285715,6.4285715 0 0 1 -6.40539,-5.90509 6.4285715,6.4285715 0 0 0 -0.0232,0.46553 6.4285715,6.4285715 0 0 0 6.42857,6.42857 6.4285715,6.4285715 0 0 0 6.42857,-6.42857 6.4285715,6.4285715 0 0 0 -0.0231,-0.52348 z" style="opacity:0.2"/>
 </g>
 <g id="groove-left" transform="matrix(1.2,0,0,1,-1.2,2.4999992)">
  <path id="rect968" style="opacity:0.37" transform="matrix(0.83333333,0,0,1,1,-8.5)" d="m 0,15 v 1 h 1 v -1 z"/>
  <rect style="opacity:0.13" id="rect976" width="1.667" height="1" x="1.83" y="6.5"/>
 </g>
 <rect style="opacity:0.13" id="groove-center" width="1" height="1" x="3" y="9"/>
 <g id="groove-right" transform="matrix(1.2,0,0,1,-5.1054688,2.6737692)">
  <path id="rect1053" style="opacity:0.37" transform="matrix(0.83333333,0,0,1,4.2545573,-8.6737704)" d="m 6,15 v 1 h 1 v -1 z"/>
  <rect style="opacity:0.13" id="rect1055" width="1.667" height="1" x="-9.26" y="6.33" transform="scale(-1,1)"/>
 </g>
 <g id="groove-topleft" transform="translate(0,-6.0000008)">
  <rect style="opacity:0.001" id="rect939" width="3" height="3" x="0" y="12"/>
  <path id="path934" style="opacity:0.37" d="M 2.9492188,12 A 3,3 0 0 0 0,15 H 1 A 2,2 0 0 1 1.2675781,14 2,2 0 0 1 2.9511719,13 2,2 0 0 1 3,13 v -1 a 3,3 0 0 0 -0.050781,0 z"/>
  <path id="circle937" style="opacity:0.13" d="M 2.9511719,13 A 2,2 0 0 0 1.2675781,14 2,2 0 0 0 1,15 h 2 v -1 -1 a 2,2 0 0 0 -0.048828,0 z"/>
  <path id="path947" style="opacity:0.08" d="M 2.9511719,13 A 2,2 0 0 0 1.2675781,14 H 3 v -1 a 2,2 0 0 0 -0.048828,0 z"/>
 </g>
 <g id="groove-top" transform="translate(0,-6.0000008)">
  <path id="rect961" style="opacity:0.37" d="m 3,12 v 1 h 1 v -1 z"/>
  <path id="rect963" style="opacity:0.13" d="m 3,13 v 1 1 h 1 v -1 -1 z"/>
  <rect style="opacity:0.08" id="rect965" width="1" height="1" x="3" y="13"/>
 </g>
 <g id="groove-topright" transform="translate(-0.95117188,-7.0000008)">
  <rect style="opacity:0.001" id="rect972" width="3" height="3" x="-7.95" y="13" transform="scale(-1,1)"/>
  <path id="path974" style="opacity:0.37" transform="translate(0.95117188,1)" d="m 4,12 v 1 A 2,2 0 0 1 4.048828,13 2,2 0 0 1 5.7324218,14 2,2 0 0 1 6,15 H 7 A 3,3 0 0 0 4.0507812,12 3,3 0 0 0 4,12 Z"/>
  <path id="path976" style="opacity:0.13" transform="translate(0.95117188,1)" d="m 4,13 v 1 1 H 6 A 2,2 0 0 0 5.7324219,14 2,2 0 0 0 4.0488281,13 2,2 0 0 0 4,13 Z"/>
  <path id="path978" style="opacity:0.08" d="m 5,14 a 2,2 0 0 1 1.6835938,1 H 4.9511719 V 14 A 2,2 0 0 1 5,14 Z"/>
 </g>
 <g id="groove-bottomleft" transform="translate(10.732422,-5.0000008)">
  <rect style="opacity:0.001" id="rect992" width="3" height="3" x="-10.73" y="-18" transform="scale(1,-1)"/>
  <path id="path994" style="opacity:0.37" transform="translate(-10.732422,-1)" d="M 0,16 A 3,3 0 0 0 2.9492188,19 3,3 0 0 0 3,19 V 18 A 2,2 0 0 1 2.9511719,18 2,2 0 0 1 1.2675781,17 2,2 0 0 1 1,16 Z"/>
  <path id="path996" style="opacity:0.13" transform="translate(-10.732422,-1)" d="M 1,16 A 2,2 0 0 0 1.2675781,17 2,2 0 0 0 2.9511719,18 2,2 0 0 0 3,18 v -1 -1 z"/>
 </g>
 <g id="groove-bottomright" transform="translate(10.732422,-5.0000008)">
  <rect style="opacity:0.001" id="rect1003" width="3" height="3" x="3.73" y="-18" transform="scale(-1)"/>
  <path id="path1005" style="opacity:0.37" transform="translate(-10.732422,-1)" d="M 6,16 A 2,2 0 0 1 5.7324219,17 2,2 0 0 1 4.0488281,18 2,2 0 0 1 4,18 v 1 A 3,3 0 0 0 4.0507812,19 3,3 0 0 0 7,16 Z"/>
  <path id="path1007" style="opacity:0.13" transform="translate(-10.732422,-1)" d="m 4,16 v 1 1 A 2,2 0 0 0 4.0488281,18 2,2 0 0 0 5.7324219,17 2,2 0 0 0 6,16 Z"/>
 </g>
 <g id="groove-bottom" transform="matrix(1,0,0,-1,0,24.999999)">
  <path id="rect1033" style="opacity:0.37" transform="matrix(1,0,0,-1,0,31)" d="m 3,18 v 1 h 1 v -1 z"/>
  <path id="rect1035" style="opacity:0.13" transform="matrix(1,0,0,-1,0,31)" d="m 3,16 v 1 1 h 1 v -1 -1 z"/>
 </g>
 <g id="groove-highlight-left" transform="matrix(1.2,0,0,1,6.8000001,2.4999992)">
  <rect style="fill:#2d639c" id="rect1041" width="2.5" height="1" x="1" y="6.5"/>
  <rect style="fill:#3a8ee6" id="rect1043" width="1.667" height="1" x="1.83" y="6.5"/>
 </g>
 <rect style="fill:#3a8ee6" id="groove-highlight-center" width="1" height="1" x="11" y="9"/>
 <g id="groove-highlight-right" transform="matrix(1.2,0,0,1,2.8945313,2.6737692)">
  <rect style="fill:#2d639c" id="rect1049" width="2.5" height="1" x="-10.09" y="6.33" transform="scale(-1,1)"/>
  <rect style="fill:#3a8ee6" id="rect1051" width="1.667" height="1" x="-9.26" y="6.33" transform="scale(-1,1)"/>
 </g>
 <g id="groove-highlight-topleft" transform="translate(8.0000001,-6.0000008)">
  <rect style="opacity:0.001" id="rect1056" width="3" height="3" x="0" y="12"/>
  <path id="path1058" style="fill:#2d639c" d="M 2.9492188,12 A 3,3 0 0 0 0,15 h 3 v -3 a 3,3 0 0 0 -0.050781,0 z"/>
  <path id="path1061" style="fill:#3a8ee6" d="M 1.2675781,14 A 2,2 0 0 0 1,15 h 2 v -1 z"/>
  <path id="path1063" style="fill:#4598ee" d="M 2.9511719,13 A 2,2 0 0 0 1.2675781,14 H 3 v -1 a 2,2 0 0 0 -0.048828,0 z"/>
 </g>
 <g id="groove-highlight-top" transform="translate(8.0000001,-6.0000008)">
  <rect style="fill:#2d639c" id="rect1067" width="1" height="3" x="3" y="12"/>
  <rect style="fill:#3a8ee6" id="rect1069" width="1" height="1" x="3" y="14"/>
  <rect style="fill:#4598ee" id="rect1071" width="1" height="1" x="3" y="13"/>
 </g>
 <g id="groove-highlight-topright" transform="translate(7.0488282,-7.0000008)">
  <rect style="opacity:0.001" id="rect1075" width="3" height="3" x="-7.95" y="13" transform="scale(-1,1)"/>
  <path id="path1077" style="fill:#2d639c" d="m 5.0019531,13 a 3,3 0 0 1 2.9492188,3 h -3 v -3 a 3,3 0 0 1 0.050781,0 z"/>
  <path id="path1079" style="fill:#3a8ee6" d="m 6.6835938,15 a 2,2 0 0 1 0.2675781,1 h -2 v -1 z"/>
  <path id="path1081" style="fill:#4598ee" d="m 5,14 a 2,2 0 0 1 1.6835938,1 H 4.9511719 V 14 A 2,2 0 0 1 5,14 Z"/>
 </g>
 <g id="groove-highlight-bottomleft" transform="translate(18.732422,-5.0000008)">
  <rect style="opacity:0.001" id="rect1085" width="3" height="3" x="-10.73" y="-18" transform="scale(1,-1)"/>
  <path id="path1087" style="fill:#2d639c" d="m -7.7832032,18 a 3,3 0 0 1 -2.9492188,-3 h 3 v 3 a 3,3 0 0 1 -0.050781,0 z"/>
  <path id="path1089" style="fill:#2f85de" transform="translate(-18.732422,-1)" d="M 9,16 A 2,2 0 0 0 9.2675781,17 2,2 0 0 0 10.951172,18 2,2 0 0 0 11,18 v -1 -1 z"/>
 </g>
 <g id="groove-highlight-bottomright" transform="translate(18.732422,-5.0000008)">
  <rect style="opacity:0.001" id="rect1095" width="3" height="3" x="3.73" y="-18" transform="scale(-1)"/>
  <path id="path1097" style="fill:#2d639c" d="m -6.6816409,18 a 3,3 0 0 0 2.9492188,-3 h -3 v 3 a 3,3 0 0 0 0.050781,0 z"/>
  <path id="path1099" style="fill:#2f85de" transform="translate(-18.732422,-1)" d="m 12,16 v 1 1 a 2,2 0 0 0 0.04883,0 2,2 0 0 0 1.683594,-1 A 2,2 0 0 0 14,16 Z"/>
 </g>
 <g id="groove-highlight-bottom" transform="matrix(1,0,0,-1,8.0000001,24.999999)">
  <rect style="fill:#2d639c" id="rect1105" width="1" height="3" x="3" y="12"/>
  <path id="rect1107" style="fill:#2f85de" transform="matrix(1,0,0,-1,-8.0000001,31)" d="m 11,16 v 1 1 h 1 v -1 -1 z"/>
 </g>
</svg>
