<svg xmlns="http://www.w3.org/2000/svg" xmlns:xlink="http://www.w3.org/1999/xlink" id="svg52" width="90" height="55" version="1.0">
 <defs id="defs4">
  <linearGradient id="linearGradient922" x1="-31.111" x2="-31.111" y1="16" y2="0" gradientUnits="userSpaceOnUse" xlink:href="#linearGradient3143"/>
  <linearGradient id="linearGradient3143">
   <stop style="stop-color:#efefef;stop-opacity:1" id="stop3139" offset="0"/>
   <stop style="stop-color:#fdfdfd;stop-opacity:1" id="stop3141" offset="1"/>
  </linearGradient>
 </defs>
 <g id="handle-shadow" transform="matrix(1.1,0,0,1.1,112.299,35.101)">
  <rect style="opacity:0.001" id="rect9" width="20" height="20" x="-42.09" y="-1.91"/>
 </g>
 <path id="groove-bottomright" style="opacity:0.2" d="M 22,22 V 33 C 33.000001,33 33.000001,22 33.000001,22 Z"/>
 <path id="groove-right" style="opacity:0.2" d="M 22,11 V 22 H 33.000001 V 11 Z"/>
 <path id="groove-topright" style="opacity:0.2" d="M 22,0 V 11 H 33.000001 C 33.000001,0 22,0 22,0 Z"/>
 <path id="groove-bottomleft" style="opacity:0.2" d="m 8.3215332e-7,22 c 0,0 0,11 11.00000016784668,11 V 22 Z"/>
 <path id="groove-left" style="opacity:0.2" d="M 8.3215332e-7,11 V 22 H 11.000001 V 11 Z"/>
 <path id="groove-topleft" style="opacity:0.2" d="M 11.000001,0 C 11.000001,0 8.3215332e-7,0 8.3215332e-7,11 H 11.000001 Z"/>
 <path id="groove-bottom" style="opacity:0.2" d="M 11.000001,22 V 33 H 22 V 22 Z"/>
 <path id="groove-center" style="opacity:0.2" d="M 22,11 H 11.000001 V 22 H 22 Z"/>
 <path id="groove-top" style="opacity:0.2" d="M 11.000001,0 V 11 H 22 V 0 Z"/>
 <path id="groove-highlight-bottomright" style="fill:#3a8fe5" d="M 54.999998,22 V 33 C 66.000001,33 66.000001,22 66.000001,22 Z"/>
 <path id="groove-highlight-right" style="fill:#3a8fe5" d="M 54.999998,11 V 22 H 66.000001 V 11 Z"/>
 <path id="groove-highlight-topright" style="fill:#3a8fe5" d="m 54.999998,0 v 11 h 11.000003 c 0,0 0,-11 -11.000003,-11 z"/>
 <path id="groove-highlight-bottomleft" style="fill:#3a8fe5" d="m 33.000001,22 c 0,0 0,11 10.999999,11 V 22 Z"/>
 <path id="groove-highlight-left" style="fill:#3a8fe5" d="M 33.000001,11 V 22 H 44 V 11 Z"/>
 <path id="groove-highlight-topleft" style="fill:#3a8fe5" d="M 44,0 C 33.000001,0 33.000001,11 33.000001,11 H 44 Z"/>
 <path id="groove-highlight-bottom" style="fill:#3a8fe5" d="M 44,22 V 33 H 54.999998 V 22 Z"/>
 <path id="groove-highlight-center" style="fill:#3a8fe5" d="M 54.999998,11 H 44 v 11 h 10.999998 z"/>
 <path id="groove-highlight-top" style="fill:#3a8fe5" d="M 44,0 V 11 H 54.999998 V 0 Z"/>
 <rect style="fill:#ff0000" id="hint-handle-size" width="24" height="18" x="66" y="15"/>
 <g id="handle" transform="matrix(1.1,0,0,1.1,46.299171,35.101)">
  <rect style="opacity:0.001" id="rect31" width="20" height="20" x="-42.09" y="-1.91"/>
  <path style="opacity:0.37" id="path33" d="m -23.453636,8.0899998 a 8.6363636,8.6363636 0 0 1 -8.636363,8.6363642 8.6363636,8.6363636 0 0 1 -8.636364,-8.6363642 8.6363636,8.6363636 0 0 1 8.636364,-8.63636365 8.6363636,8.6363636 0 0 1 8.636363,8.63636365 z"/>
  <path style="fill:url(#linearGradient922)" id="path35" transform="matrix(1.0227273,0,0,1.0227273,0.63711821,-0.0918182)" d="m -24,8 a 8,8 0 0 1 -8,8 8,8 0 0 1 -8,-8 8,8 0 0 1 8,-8 8,8 0 0 1 8,8 z"/>
 </g>
 <g id="handle-hover" transform="matrix(1.1,0,0,1.1,68.299171,35.101)">
  <rect style="opacity:0.001" id="rect38" width="20" height="20" x="-42.09" y="-1.91"/>
  <path style="opacity:0.37" id="path40" transform="matrix(0.90909091,0,0,0.90909091,-62.090155,-31.91)" d="M 33,34.5 A 9.5,9.5 0 0 0 23.5,44 9.5,9.5 0 0 0 33,53.5 9.5,9.5 0 0 0 42.5,44 9.5,9.5 0 0 0 33,34.5 Z M 32.9902,35 A 9.0000002,9.0000002 0 0 1 33,35 a 9.0000002,9.0000002 0 0 1 9,9 9.0000002,9.0000002 0 0 1 -9,9 9.0000002,9.0000002 0 0 1 -9,-9 9.0000002,9.0000002 0 0 1 8.990234,-9 z"/>
  <path style="opacity:0.1;fill:#ffffff" id="path42" transform="matrix(1.0227273,0,0,1.0227273,0.63711821,-0.0918182)" d="m -24,8 a 8,8 0 0 1 -8,8 8,8 0 0 1 -8,-8 8,8 0 0 1 8,-8 8,8 0 0 1 8,8 z"/>
 </g>
 <g id="handle-focus" transform="matrix(1.1,0,0,1.1,90.299171,35.101)">
  <rect style="opacity:0.001" id="rect45" width="20" height="20" x="-42.09" y="-1.91"/>
  <path style="opacity:0.37" id="path47" transform="matrix(0.90909091,0,0,0.90909091,-62.090155,-31.91)" d="M 33,34.5 A 9.5,9.5 0 0 0 23.5,44 9.5,9.5 0 0 0 33,53.5 9.5,9.5 0 0 0 42.5,44 9.5,9.5 0 0 0 33,34.5 Z M 32.9902,35 A 9.0000002,9.0000002 0 0 1 33,35 a 9.0000002,9.0000002 0 0 1 9,9 9.0000002,9.0000002 0 0 1 -9,9 9.0000002,9.0000002 0 0 1 -9,-9 9.0000002,9.0000002 0 0 1 8.990234,-9 z"/>
  <path style="opacity:0.1;fill:#ffffff" id="path49" transform="matrix(1.0227273,0,0,1.0227273,0.63711821,-0.0918182)" d="m -24,8 a 8,8 0 0 1 -8,8 8,8 0 0 1 -8,-8 8,8 0 0 1 8,-8 8,8 0 0 1 8,8 z"/>
 </g>
</svg>
