<svg xmlns="http://www.w3.org/2000/svg" xmlns:xlink="http://www.w3.org/1999/xlink" id="svg156" width="38" height="18" version="1">
 <defs id="defs7082">
  <linearGradient id="linearGradient2254" x1="58" x2="58" y1="1187" y2="1177" gradientUnits="userSpaceOnUse" xlink:href="#linearGradient2178"/>
  <linearGradient id="linearGradient2178">
   <stop style="stop-color:#3b90e8;stop-opacity:1" id="stop2174" offset="0"/>
   <stop style="stop-color:#5da9fa;stop-opacity:1" id="stop2176" offset="1"/>
  </linearGradient>
  <linearGradient id="linearGradient2256" x1="53" x2="63" y1="1182" y2="1182" gradientUnits="userSpaceOnUse" xlink:href="#linearGradient2178"/>
  <linearGradient id="linearGradient2260" x1="58" x2="58" y1="1177" y2="1187" gradientUnits="userSpaceOnUse" xlink:href="#linearGradient2178"/>
  <linearGradient id="linearGradient2263" x1="-1187" x2="-1177" y1="57" y2="57" gradientUnits="userSpaceOnUse" xlink:href="#linearGradient2178"/>
  <linearGradient id="linearGradient2267" x1="-1177" x2="-1187" y1="57" y2="57" gradientUnits="userSpaceOnUse" xlink:href="#linearGradient2178"/>
  <linearGradient id="linearGradient2271" x1="-1187" x2="-1177" y1="57" y2="57" gradientTransform="translate(1170,-51)" gradientUnits="userSpaceOnUse" xlink:href="#linearGradient2178"/>
  <linearGradient id="linearGradient1086" x1="53" x2="63" y1="1182" y2="1182" gradientUnits="userSpaceOnUse" xlink:href="#linearGradient2178"/>
  <linearGradient id="linearGradient1088" x1="-1187" x2="-1177" y1="57" y2="57" gradientUnits="userSpaceOnUse" xlink:href="#linearGradient2178"/>
  <linearGradient id="linearGradient1090" x1="-1177" x2="-1187" y1="57" y2="57" gradientUnits="userSpaceOnUse" xlink:href="#linearGradient2178"/>
  <linearGradient id="linearGradient1167" x1="-1187" x2="-1177" y1="57" y2="57" gradientTransform="translate(1170,-38)" gradientUnits="userSpaceOnUse" xlink:href="#linearGradient2178"/>
  <linearGradient id="linearGradient1169" x1="-1177" x2="-1187" y1="57" y2="57" gradientUnits="userSpaceOnUse" xlink:href="#linearGradient2178"/>
  <linearGradient id="linearGradient1171" x1="-1177" x2="-1187" y1="57" y2="57" gradientUnits="userSpaceOnUse" xlink:href="#linearGradient2178"/>
  <linearGradient id="linearGradient1173" x1="-1187" x2="-1177" y1="57" y2="57" gradientUnits="userSpaceOnUse" xlink:href="#linearGradient2178"/>
  <linearGradient id="linearGradient1175" x1="-1187" x2="-1177" y1="57" y2="57" gradientUnits="userSpaceOnUse" xlink:href="#linearGradient2178"/>
  <linearGradient id="linearGradient1177" x1="58" x2="58" y1="1177" y2="1187" gradientUnits="userSpaceOnUse" xlink:href="#linearGradient2178"/>
  <linearGradient id="linearGradient1179" x1="53" x2="63" y1="1182" y2="1182" gradientUnits="userSpaceOnUse" xlink:href="#linearGradient2178"/>
  <linearGradient id="linearGradient1181" x1="53" x2="63" y1="1182" y2="1182" gradientUnits="userSpaceOnUse" xlink:href="#linearGradient2178"/>
  <linearGradient id="linearGradient1183" x1="58" x2="58" y1="1187" y2="1177" gradientUnits="userSpaceOnUse" xlink:href="#linearGradient2178"/>
  <linearGradient id="linearGradient1235" x1="-1187" x2="-1177" y1="57" y2="57" gradientTransform="translate(1170,-24.99999)" gradientUnits="userSpaceOnUse" xlink:href="#linearGradient2178"/>
  <linearGradient id="linearGradient1237" x1="-1177" x2="-1187" y1="57" y2="57" gradientUnits="userSpaceOnUse" xlink:href="#linearGradient2178"/>
  <linearGradient id="linearGradient1239" x1="-1177" x2="-1187" y1="57" y2="57" gradientUnits="userSpaceOnUse" xlink:href="#linearGradient2178"/>
  <linearGradient id="linearGradient1241" x1="-1187" x2="-1177" y1="57" y2="57" gradientUnits="userSpaceOnUse" xlink:href="#linearGradient2178"/>
  <linearGradient id="linearGradient1243" x1="-1187" x2="-1177" y1="57" y2="57" gradientUnits="userSpaceOnUse" xlink:href="#linearGradient2178"/>
  <linearGradient id="linearGradient1245" x1="58" x2="58" y1="1177" y2="1187" gradientUnits="userSpaceOnUse" xlink:href="#linearGradient2178"/>
  <linearGradient id="linearGradient1247" x1="53" x2="63" y1="1182" y2="1182" gradientUnits="userSpaceOnUse" xlink:href="#linearGradient2178"/>
  <linearGradient id="linearGradient1249" x1="53" x2="63" y1="1182" y2="1182" gradientUnits="userSpaceOnUse" xlink:href="#linearGradient2178"/>
  <linearGradient id="linearGradient1251" x1="58" x2="58" y1="1187" y2="1177" gradientUnits="userSpaceOnUse" xlink:href="#linearGradient2178"/>
 </defs>
 <rect id="hint-stretch-borders" style="fill:#ff0000" width="4" height="4" x="0" y="0"/>
 <g id="hover-top" transform="translate(-51.999997,-1170)" style="opacity:0.9">
  <rect style="fill:url(#linearGradient2254)" id="rect2204" width="4" height="4" x="56" y="1176"/>
  <rect id="rect2206" width="4" height="1" x="56" y="1176" style="fill:#2b71bc"/>
 </g>
 <g id="hover-left" transform="rotate(-90,-553,623)" style="opacity:0.9">
  <rect id="rect2210" width="4" height="4" x="56" y="1176" style="fill:url(#linearGradient1086)"/>
  <rect style="fill:#2b71bc" id="rect2212" width="4" height="1" x="56" y="1176"/>
 </g>
 <g id="hover-right" transform="matrix(0,-1,-1,0,1188,70)" style="opacity:0.9">
  <rect style="fill:url(#linearGradient2256)" id="rect2216" width="4" height="4" x="56" y="1176"/>
  <rect id="rect2218" width="4" height="1" x="56" y="1176" style="fill:#2b71bc"/>
 </g>
 <g id="hover-bottom" transform="matrix(1,0,0,-1,-51.999997,1194)" style="opacity:0.9">
  <rect id="rect2222" width="4" height="4" x="56" y="1176" style="fill:url(#linearGradient2260)"/>
  <rect style="fill:#2b71bc" id="rect2224" width="4" height="1" x="56" y="1176"/>
 </g>
 <g id="hover-topleft" transform="translate(-50.999997,-1170)" style="opacity:0.9">
  <rect style="fill:url(#linearGradient1088)" id="rect2228" width="4" height="4" x="-1180" y="51" transform="rotate(-90)"/>
  <path style="fill:#2b71bc" id="path2230" d="m 51,1176 v 1 3 h 1 v -3 h 3 v -1 h -3 z"/>
 </g>
 <g id="hover-topright" transform="matrix(-1,0,0,1,63.000003,-1170)" style="opacity:0.9">
  <rect id="rect2234" width="4" height="4" x="-1180" y="51" transform="rotate(-90)" style="fill:url(#linearGradient2263)"/>
  <path id="path2236" d="m 51,1176 v 1 3 h 1 v -3 h 3 v -1 h -3 z" style="fill:#2b71bc"/>
 </g>
 <g id="hover-bottomleft" transform="matrix(1,0,0,-1,-50.999997,1194)" style="opacity:0.9">
  <rect id="rect2240" width="4" height="4" x="-1180" y="51" transform="rotate(-90)" style="fill:url(#linearGradient1090)"/>
  <path id="path2242" d="m 51,1176 v 1 3 h 1 v -3 h 3 v -1 h -3 z" style="fill:#2b71bc"/>
 </g>
 <g id="hover-bottomright" transform="rotate(180,31.500002,597)" style="opacity:0.9">
  <rect style="fill:url(#linearGradient2267)" id="rect2246" width="4" height="4" x="-1180" y="51" transform="rotate(-90)"/>
  <path style="fill:#2b71bc" id="path2248" d="m 51,1176 v 1 3 h 1 v -3 h 3 v -1 h -3 z"/>
 </g>
 <rect id="hover-center" width="4" height="4" x="-14" y="4" transform="rotate(-90)" style="opacity:0.9;fill:url(#linearGradient2271)"/>
 <g id="selected-top" transform="translate(-38.999997,-1170)" style="opacity:0.9">
  <rect style="fill:url(#linearGradient1183)" id="rect1117" width="4" height="4" x="56" y="1176"/>
  <rect id="rect1119" width="4" height="1" x="56" y="1176" style="fill:#2b71bc"/>
 </g>
 <g id="selected-left" transform="rotate(-90,-546.5,616.5)" style="opacity:0.9">
  <rect id="rect1123" width="4" height="4" x="56" y="1176" style="fill:url(#linearGradient1181)"/>
  <rect style="fill:#2b71bc" id="rect1125" width="4" height="1" x="56" y="1176"/>
 </g>
 <g id="selected-right" transform="matrix(0,-1,-1,0,1201,70)" style="opacity:0.9">
  <rect style="fill:url(#linearGradient1179)" id="rect1129" width="4" height="4" x="56" y="1176"/>
  <rect id="rect1131" width="4" height="1" x="56" y="1176" style="fill:#2b71bc"/>
 </g>
 <g id="selected-bottom" transform="matrix(1,0,0,-1,-38.999997,1194)" style="opacity:0.9">
  <rect id="rect1135" width="4" height="4" x="56" y="1176" style="fill:url(#linearGradient1177)"/>
  <rect style="fill:#2b71bc" id="rect1137" width="4" height="1" x="56" y="1176"/>
 </g>
 <g id="selected-topleft" transform="translate(-37.999997,-1170)" style="opacity:0.9">
  <rect style="fill:url(#linearGradient1175)" id="rect1141" width="4" height="4" x="-1180" y="51" transform="rotate(-90)"/>
  <path style="fill:#2b71bc" id="path1143" d="m 51,1176 v 1 3 h 1 v -3 h 3 v -1 h -3 z"/>
 </g>
 <g id="selected-topright" transform="matrix(-1,0,0,1,76.000003,-1170)" style="opacity:0.9">
  <rect id="rect1147" width="4" height="4" x="-1180" y="51" transform="rotate(-90)" style="fill:url(#linearGradient1173)"/>
  <path id="path1149" d="m 51,1176 v 1 3 h 1 v -3 h 3 v -1 h -3 z" style="fill:#2b71bc"/>
 </g>
 <g id="selected-bottomleft" transform="matrix(1,0,0,-1,-37.999997,1194)" style="opacity:0.9">
  <rect id="rect1153" width="4" height="4" x="-1180" y="51" transform="rotate(-90)" style="fill:url(#linearGradient1171)"/>
  <path id="path1155" d="m 51,1176 v 1 3 h 1 v -3 h 3 v -1 h -3 z" style="fill:#2b71bc"/>
 </g>
 <g id="selected-bottomright" transform="rotate(180,38.000002,597)" style="opacity:0.9">
  <rect style="fill:url(#linearGradient1169)" id="rect1159" width="4" height="4" x="-1180" y="51" transform="rotate(-90)"/>
  <path style="fill:#2b71bc" id="path1161" d="m 51,1176 v 1 3 h 1 v -3 h 3 v -1 h -3 z"/>
 </g>
 <rect id="selected-center" width="4" height="4" x="-14" y="17" transform="rotate(-90)" style="opacity:0.9;fill:url(#linearGradient1167)"/>
 <g id="selected_hover-top" transform="translate(-25.999987,-1170)" style="opacity:0.9">
  <rect style="fill:url(#linearGradient1251)" id="rect1185" width="4" height="4" x="56" y="1176"/>
  <rect id="rect1187" width="4" height="1" x="56" y="1176" style="fill:#2b71bc"/>
 </g>
 <g id="selected_hover-left" transform="rotate(-90,-540,610)" style="opacity:0.9">
  <rect id="rect1191" width="4" height="4" x="56" y="1176" style="fill:url(#linearGradient1249)"/>
  <rect style="fill:#2b71bc" id="rect1193" width="4" height="1" x="56" y="1176"/>
 </g>
 <g id="selected_hover-right" transform="matrix(0,-1,-1,0,1214,70)" style="opacity:0.9">
  <rect style="fill:url(#linearGradient1247)" id="rect1197" width="4" height="4" x="56" y="1176"/>
  <rect id="rect1199" width="4" height="1" x="56" y="1176" style="fill:#2b71bc"/>
 </g>
 <g id="selected_hover-bottom" transform="matrix(1,0,0,-1,-25.999987,1194)" style="opacity:0.9">
  <rect id="rect1203" width="4" height="4" x="56" y="1176" style="fill:url(#linearGradient1245)"/>
  <rect style="fill:#2b71bc" id="rect1205" width="4" height="1" x="56" y="1176"/>
 </g>
 <g id="selected_hover-topleft" transform="translate(-24.999987,-1170)" style="opacity:0.9">
  <rect style="fill:url(#linearGradient1243)" id="rect1209" width="4" height="4" x="-1180" y="51" transform="rotate(-90)"/>
  <path style="fill:#2b71bc" id="path1211" d="m 51,1176 v 1 3 h 1 v -3 h 3 v -1 h -3 z"/>
 </g>
 <g id="selected_hover-topright" transform="matrix(-1,0,0,1,89.000013,-1170)" style="opacity:0.9">
  <rect id="rect1215" width="4" height="4" x="-1180" y="51" transform="rotate(-90)" style="fill:url(#linearGradient1241)"/>
  <path id="path1217" d="m 51,1176 v 1 3 h 1 v -3 h 3 v -1 h -3 z" style="fill:#2b71bc"/>
 </g>
 <g id="selected_hover-bottomleft" transform="matrix(1,0,0,-1,-24.999987,1194)" style="opacity:0.9">
  <rect id="rect1221" width="4" height="4" x="-1180" y="51" transform="rotate(-90)" style="fill:url(#linearGradient1239)"/>
  <path id="path1223" d="m 51,1176 v 1 3 h 1 v -3 h 3 v -1 h -3 z" style="fill:#2b71bc"/>
 </g>
 <g id="selected_hover-bottomright" transform="rotate(180,44.500007,597)" style="opacity:0.9">
  <rect style="fill:url(#linearGradient1237)" id="rect1227" width="4" height="4" x="-1180" y="51" transform="rotate(-90)"/>
  <path style="fill:#2b71bc" id="path1229" d="m 51,1176 v 1 3 h 1 v -3 h 3 v -1 h -3 z"/>
 </g>
 <rect id="selected_hover-center" width="4" height="4" x="-14" y="30" transform="rotate(-90)" style="opacity:0.9;fill:url(#linearGradient1235)"/>
</svg>
